<?xml version="1.0" encoding="UTF-8"?>
<svg width="58px" height="58px" viewBox="0 0 58 58" version="1.1" xmlns="http://www.w3.org/2000/svg" xmlns:xlink="http://www.w3.org/1999/xlink">
    <!-- Generator: Sketch 46.2 (44496) - http://www.bohemiancoding.com/sketch -->
    <title>logo black</title>
    <desc>Created with Sketch.</desc>
    <defs></defs>
    <g id="Page-1" stroke="none" stroke-width="1" fill="none" fill-rule="evenodd">
        <g id="test-desk-2a" transform="translate(-36.000000, -886.000000)" stroke="#000000">
            <g id="logo-black" transform="translate(37.000000, 887.000000)">
                <g id="Group-10">
                    <circle id="Oval" stroke-width="2" cx="28" cy="28" r="28"></circle>
                    <g id="Group-7" transform="translate(28.000000, 30.500000) scale(1, -1) translate(-28.000000, -30.500000) translate(18.000000, 20.000000)" fill-rule="nonzero" fill="#000000">
                        <path d="M9.98982339,0 C4.49265587,0 0.0203899501,4.64704978 0.0203899501,10.3591531 C0.0203899501,10.4280515 0.0165263731,10.4998206 0.0130140305,10.5719485 C0.003179471,10.7477828 -0.00595261995,10.9189522 0.00493564233,11.0933511 L0.00353070527,21 L1.42216591,21 L1.42216591,11.0459835 C1.41443876,10.9002922 1.42181468,10.7904855 1.42813689,10.6821141 C1.43410788,10.5683601 1.43937639,10.4614241 1.43937639,10.3591531 C1.43937639,5.44835187 5.27520582,1.45368329 9.98982339,1.45368329 C14.5358485,1.45368329 18.302836,5.14692162 18.5659105,9.86215205 L18.5767987,10.1650177 C18.5796086,10.2543702 18.5813648,10.3207567 18.5813648,10.3875019 C18.5813648,10.454606 18.5796086,10.5217102 18.5775012,10.5880966 L18.5532661,11.2203824 L19.9778722,11.2688266 L19.9943803,10.659148 C19.9975414,10.5690778 20,10.4790075 20,10.3875019 C20,10.2963552 19.9975414,10.2062849 19.9943803,10.1158558 L19.9708476,9.60163018 C19.5746553,4.21105244 15.1912516,0 9.98982339,0" id="path58"></path>
                        <path d="M6,13.59375 C6,14.4223259 6.44768627,15.09375 7.00015686,15.09375 C7.55231373,15.09375 8,14.4223259 8,13.59375 C8,12.7651741 7.55231373,12.09375 7.00015686,12.09375 C6.44768627,12.09375 6,12.7651741 6,13.59375" id="path62"></path>
                        <path d="M13,13.59375 C13,14.4223259 13.4476863,15.09375 14.0001569,15.09375 C14.5523137,15.09375 15,14.4223259 15,13.59375 C15,12.7651741 14.5523137,12.09375 14.0001569,12.09375 C13.4476863,12.09375 13,12.7651741 13,13.59375" id="path66"></path>
                    </g>
                </g>
            </g>
        </g>
    </g>
</svg>