<?xml version="1.0" encoding="UTF-8"?>
<svg width="797px" height="109px" viewBox="0 0 797 109" version="1.1" xmlns="http://www.w3.org/2000/svg" xmlns:xlink="http://www.w3.org/1999/xlink">
    <!-- Generator: Sketch 46.2 (44496) - http://www.bohemiancoding.com/sketch -->
    <title>saburly</title>
    <desc>Created with Sketch.</desc>
    <defs>
        <filter x="-0.9%" y="-4.9%" width="101.9%" height="113.7%" filterUnits="objectBoundingBox" id="filter-1">
            <feOffset dx="0" dy="2" in="SourceAlpha" result="shadowOffsetOuter1"></feOffset>
            <feGaussianBlur stdDeviation="2" in="shadowOffsetOuter1" result="shadowBlurOuter1"></feGaussianBlur>
            <feColorMatrix values="0 0 0 0 0   0 0 0 0 0   0 0 0 0 0  0 0 0 0.12 0" type="matrix" in="shadowBlurOuter1" result="shadowMatrixOuter1"></feColorMatrix>
            <feMerge>
                <feMergeNode in="shadowMatrixOuter1"></feMergeNode>
                <feMergeNode in="SourceGraphic"></feMergeNode>
            </feMerge>
        </filter>
    </defs>
    <g id="Page-1" stroke="none" stroke-width="1" fill="none" fill-rule="evenodd">
        <g id="test-desk-2a" transform="translate(-242.000000, -311.000000)" fill-rule="nonzero">
            <g id="saburly" transform="translate(246.000000, 313.000000)">
                <g id="saburly_final-_1_" filter="url(#filter-1)">
                    <g id="g26" transform="translate(394.500000, 51.000000) scale(1, -1) translate(-394.500000, -51.000000) ">
                        <path d="M33.6157762,41.6540777 C33.4741985,41.6489088 33.3393626,41.6506318 33.2011558,41.6540777 L32.9247421,41.6558007 C32.8337279,41.6558007 32.7443991,41.6626926 32.6550703,41.6713074 C32.515178,41.6799223 32.3769712,41.6902601 32.2286516,41.6937061 C18.200659,42.0744831 6.78679781,54.0439764 6.78679781,68.3773885 C6.78679781,82.7090777 18.200659,94.6785709 32.2353934,95.059348 C32.3769712,95.0627939 32.515178,95.0731318 32.6550703,95.0817466 C32.7443991,95.0886385 32.8337279,95.0972534 32.9247421,95.0972534 L33.2011558,95.0989764 C33.2719446,95.0989764 33.341048,95.0989764 33.4185787,95.0989764 C33.4961094,95.0989764 33.5803818,95.0989764 33.6815088,95.0972534 L85.193889,95.0972534 L95.8762652,95.0972534 L95.9015469,101.282726 L32.9247421,101.282726 C32.7309155,101.282726 32.5387743,101.270666 32.3483185,101.256882 L32.1123557,101.243098 C14.8112209,100.796848 0.736035613,86.0550912 0.736035613,68.3773885 C0.736035613,50.6996858 14.8112209,35.9544831 32.1157266,35.5099561 L32.3483185,35.4961723 C32.5387743,35.4823885 32.7309155,35.4703277 32.9247421,35.4703277" id="path34" fill="#FFFFFF"></path>
                        <path d="M32.9250792,35.0397568 C32.7194544,35.0397568 32.5205714,35.0518176 32.3183175,35.0656014 L32.0924674,35.0793851 C14.5755951,35.5308041 0.315010433,50.4672568 0.315010433,68.3775608 C0.315010433,86.2844189 14.5739096,101.222595 32.1008946,101.674014 L32.3233739,101.686074 C32.5205714,101.699858 32.7194544,101.713642 32.9250792,101.713642 L96.3249318,101.713642 L96.2962791,94.6649595 L32.9267647,94.6649595 C32.8458631,94.6649595 32.7683324,94.6597905 32.6908018,94.6528986 L32.5761913,94.6442838 C32.4666371,94.6373919 32.3570829,94.6305 32.2441578,94.6270541 C18.4403298,94.2548919 7.20849717,82.4783716 7.20849717,68.3775608 C7.20849717,54.275027 18.4369589,42.4985068 32.2407869,42.1246216 C32.3553974,42.1211757 32.4683225,42.1142838 32.5795621,42.1073919 L32.6908018,42.1005 C32.7683324,42.0936081 32.8458631,42.0867162 32.9250792,42.0867162 L33.2048638,42.0849932 C33.3430706,42.0798243 33.4711647,42.0815473 33.6026297,42.0849932 L33.6279115,41.2235068 C33.479592,41.2183378 33.3363288,41.2200608 33.1913802,41.2235068 L32.9233938,41.2252297 C32.8222668,41.2252297 32.7194544,41.2338446 32.6200129,41.2424595 C32.4261863,41.2527973 32.3250593,41.2596892 32.2205615,41.2631351 C17.9633477,41.6490811 6.36577263,53.8132703 6.36577263,68.3775608 C6.36577263,82.9401284 17.9650332,95.1025946 32.2222469,95.4885405 C32.3250593,95.4919865 32.4245008,95.4971554 32.5239423,95.5040473 L32.6301256,95.5109392 C32.7194544,95.5195541 32.8222668,95.5264459 32.9250792,95.5264459 L33.4189158,95.5298919 L33.6953294,95.5264459 L95.4569255,95.5264459 L95.4788363,100.852155 L32.9250792,100.852155 C32.7396798,100.852155 32.5576513,100.838372 32.3756228,100.826311 L32.136289,100.812527 C15.0492063,100.371446 1.15773497,85.8226622 1.15773497,68.3775608 C1.15773497,50.9307365 15.0508917,36.3802297 32.1261763,35.9391486 L32.3705665,35.9253649 C32.5576513,35.9133041 32.7396798,35.9012432 32.9250792,35.9012432 L32.9250792,35.0397568 Z" id="path38" fill="#FFFFFF"></path>
                        <path d="M63.022312,60.6388277 C63.1638897,60.6439966 63.2987256,60.6422736 63.4369324,60.6388277 L63.7133461,60.6371047 C63.8043603,60.6371047 63.8936891,60.6302128 63.9830179,60.621598 C64.1229102,60.6129831 64.261117,60.6026453 64.4094365,60.5991993 C78.4374292,60.2184223 89.8512904,48.2489291 89.8512904,33.9155169 C89.8512904,19.5838277 78.4374292,7.61433446 64.4026947,7.23355743 C64.261117,7.23011149 64.1229102,7.21977365 63.9830179,7.21115878 C63.8936891,7.20426689 63.8043603,7.19565203 63.7133461,7.19565203 L63.4369324,7.19392905 C63.3661436,7.19392905 63.2970402,7.19392905 63.2195095,7.19392905 C63.1419788,7.19392905 63.0577064,7.19392905 62.9565794,7.19565203 L11.4441992,7.19565203 L0.761822984,7.19565203 L0.736541247,1.01017905 L63.7133461,1.01017905 C63.9071727,1.01017905 64.0993139,1.02223986 64.2897697,1.03602365 L64.5257325,1.04980743 C81.8268673,1.49605743 95.9020526,16.2378142 95.9020526,33.9155169 C95.9020526,51.5932196 81.8268673,66.3384223 64.5223616,66.7829493 L64.2897697,66.7967331 C64.0993139,66.8105169 63.9071727,66.8225777 63.7133461,66.8225777" id="path42" fill="#FFFFFF"></path>
                        <polygon id="path46" fill="#FFFFFF" points="200.113706 0.98622973 156.769012 86.6248784 113.424318 0.98622973 107.296025 4.01349324 156.769012 101.759473 206.241999 4.01349324"></polygon>
                        <path d="M288.71018,67.6993986 L288.48433,67.7114595 C288.403428,67.7166284 288.322526,67.7183514 288.241625,67.7217973 L288.241625,67.7373041 L287.889366,67.7373041 C287.885995,67.7373041 287.882624,67.7373041 287.877568,67.7373041 L287.877568,67.7373041 L287.75453,67.7373041 L287.75453,60.666223 L288.241625,60.666223 L288.241625,60.6696689 C288.346123,60.662777 288.452306,60.6558851 288.563546,60.6524392 C302.365688,60.2785541 313.595835,48.5020338 313.595835,34.401223 C313.595835,20.2986892 302.364003,8.52216892 288.558489,8.14828378 C288.440508,8.14656081 288.324212,8.13966892 288.11016,8.12588514 C288.032629,8.11899324 287.956784,8.11210135 287.875882,8.11210135 L231.219512,8.11210135 L231.219512,35.0731824 L224.477715,35.0731824 L224.477715,1.06514189 L287.877568,1.06514189 C288.081507,1.06514189 288.283761,1.0772027 288.477588,1.09098649 L288.701753,1.10477027 C306.228737,1.55618919 320.487637,16.4926419 320.487637,34.401223 C320.487637,52.3098041 306.227052,67.2462568 288.71018,67.6993986" id="path50" fill="#FFFFFF"></path>
                        <path d="M288.558658,42.1239324 C288.440676,42.1204865 288.32438,42.1135946 288.108643,42.0998108 C288.032798,42.0929189 287.956953,42.08775 287.876051,42.08775 L231.21968,42.08775 L231.21968,94.6401486 L288.241793,94.6401486 L288.241793,94.6435946 C288.346291,94.6367027 288.452475,94.6315338 288.562029,94.6280878 C302.365857,94.2542027 313.594319,82.4776824 313.594319,68.3751486 C313.594319,54.2743378 302.362486,42.4978176 288.558658,42.1239324 M288.710348,101.675047 L288.484498,101.685385 C288.403597,101.692277 288.32101,101.692277 288.241793,101.697446 L288.241793,101.712953 L287.889535,101.712953 C287.886164,101.712953 287.882793,101.712953 287.877736,101.712953 L287.877736,101.712953 L231.21968,101.712953 L224.548673,101.712953 L224.477884,101.712953 L224.477884,35.0407905 L231.21968,35.0407905 L287.877736,35.0407905 C288.081676,35.0407905 288.28393,35.0528514 288.477756,35.0649122 L288.701921,35.0786959 C306.228906,35.5318378 320.487805,50.4682905 320.487805,68.3751486 C320.487805,86.2854527 306.227221,101.221905 288.710348,101.675047" id="path54" fill="#FFFFFF"></path>
                        <g id="Group-7" transform="translate(342.743440, 1.000000)" fill="#000000">
                            <path d="M48.4540102,0.0106959459 C22.0750467,0.0106959459 0.61422356,22.3231959 0.61422356,49.7494797 C0.61422356,50.0802905 0.59568362,50.4248851 0.578829129,50.7712027 C0.531636555,51.6154595 0.487814879,52.4373176 0.5400638,53.2746824 L0.533322004,100.840797 L7.34085083,100.840797 L7.34085083,53.04725 C7.30377095,52.347723 7.33916538,51.8204932 7.36950347,51.3001554 C7.3981561,50.753973 7.42343784,50.240527 7.42343784,49.7494797 C7.42343784,26.1705946 25.8302272,6.99045946 48.4540102,6.99045946 C70.2687776,6.99045946 88.345219,24.7232973 89.6076204,47.3631622 L89.6598693,48.8173514 C89.6733529,49.2463716 89.6817801,49.5651216 89.6817801,49.8855946 C89.6817801,50.2077905 89.6733529,50.5299865 89.6632402,50.8487365 L89.5469442,53.8846149 L96.3831257,54.1172162 L96.4623418,51.1898851 C96.4775108,50.7574189 96.489309,50.3249527 96.489309,49.8855946 C96.489309,49.4479595 96.4775108,49.0154932 96.4623418,48.5813041 L96.3494167,46.1122838 C94.4482301,20.2297838 73.4138256,0.0106959459 48.4540102,0.0106959459" id="path58"></path>
                            <path d="M27.1876879,63.8115236 C27.1876879,66.8456791 29.5928238,69.3043615 32.5608996,69.3043615 C35.52729,69.3043615 37.9324258,66.8456791 37.9324258,63.8115236 C37.9324258,60.7773682 35.52729,58.3186858 32.5608996,58.3186858 C29.5928238,58.3186858 27.1876879,60.7773682 27.1876879,63.8115236" id="path62"></path>
                            <path d="M60.5068251,63.8115236 C60.5068251,66.8456791 62.911961,69.3043615 65.8800368,69.3043615 C68.8464272,69.3043615 71.251563,66.8456791 71.251563,63.8115236 C71.251563,60.7773682 68.8464272,58.3186858 65.8800368,58.3186858 C62.911961,58.3186858 60.5068251,60.7773682 60.5068251,63.8115236" id="path66"></path>
                        </g>
                        <path d="M522.879733,35.0649122 C522.685906,35.0511284 522.483652,35.0390676 522.279713,35.0390676 L513.646843,35.0390676 L546.501302,1.01035135 L555.720708,1.01035135 L523.139292,35.0804189 C523.125809,35.0804189 523.115696,35.0786959 523.103898,35.0786959 L522.879733,35.0649122 Z" id="path70" fill="#FFFFFF"></path>
                        <polygon id="path74" fill="#FFFFFF" points="465.684861 94.6403209 465.620814 94.6403209 465.620814 42.0861993 465.652838 42.0861993 465.652838 84.7900845 506.848584 42.0861993 516.381484 42.0861993"></polygon>
                        <polygon id="path78" fill="#FFFFFF" points="458.879523 35.0395845 458.879523 61.5078953 458.807049 1.01086824 465.631432 1.01086824 465.653343 35.0395845 465.62132 35.0395845"></polygon>
                        <path d="M523.111819,101.673669 L522.885969,101.68573 C522.805068,101.690899 522.724166,101.692622 522.643264,101.696068 L522.643264,101.711574 L522.291006,101.711574 C522.287635,101.711574 522.284264,101.711574 522.279207,101.711574 L522.279207,101.711574 L465.621151,101.711574 L458.951829,101.711574 L458.879355,101.711574 L458.879355,61.507723 L458.879355,35.0394122 L465.621151,35.0394122 L465.653175,35.0394122 L465.653175,42.0863716 L465.621151,42.0863716 L465.621151,94.6404932 L465.685198,94.6404932 L522.643264,94.6404932 L522.643264,94.6439392 C522.747762,94.6370473 522.855631,94.6301554 522.965185,94.6267095 C536.767328,94.2528243 547.997475,82.4763041 547.997475,68.3754932 C547.997475,54.2729595 536.765642,42.4964392 522.960129,42.1225541 C522.842147,42.1208311 522.725851,42.1139392 522.511799,42.1001554 C522.434269,42.0932635 522.358424,42.0863716 522.277522,42.0863716 L516.380136,42.0863716 L506.848921,42.0863716 L513.646337,35.0394122 L522.279207,35.0394122 C522.483147,35.0394122 522.685401,35.051473 522.879227,35.0652568 L523.103392,35.0790405 C523.11519,35.0790405 523.126988,35.0807635 523.138787,35.0807635 C540.648917,35.5528581 554.889276,50.478973 554.889276,68.3754932 C554.889276,86.2840743 540.628692,101.220527 523.111819,101.673669" id="path82" fill="#FFFFFF"></path>
                        <path d="M591.204973,94.475777 L628.313506,94.475777 L628.313506,8.06523649 L591.204973,8.06523649 L591.204973,94.475777 Z M584.367106,1.01138514 L635.151373,1.01138514 L635.151373,101.533074 L584.367106,101.533074 L584.367106,1.01138514 Z" id="path84" fill="#FFFFFF"></path>
                        <polygon id="path88" fill="#FFFFFF" points="680.293092 1.01069595 584.367444 1.01069595 584.367444 33.0459324 591.20531 33.0459324 591.20531 8.06627027 673.586691 8.05248649 673.586691 33.0459324 680.293092 33.0459324"></polygon>
                        <polygon id="path92" fill="#FFFFFF" points="762.00754 1.173 762.00754 101.174351 755.169673 101.174351 755.169673 8.17860811 713.74302 8.07350676 713.749762 1.173"></polygon>
                        <path d="M788.936971,98.4944392 L788.85607,101.42177 L782.021574,101.189169 L782.136184,98.1532905 C782.146297,97.8345405 782.15641,97.5140676 782.15641,97.1901486 C782.15641,96.8696757 782.146297,96.5509257 782.132814,96.1219054 L782.080565,94.6677162 C780.819849,72.0295743 762.741722,54.2950135 740.92864,54.2950135 C718.303171,54.2950135 699.896382,73.4768716 699.896382,97.0557568 C699.896382,97.5450811 699.8711,98.06025 699.842448,98.6047095 C699.813795,99.1250473 699.778401,99.652277 699.815481,100.351804 L699.815481,101.747412 L693.014694,101.747412 L693.014694,100.579236 C692.960759,99.7418716 693.006266,98.9200135 693.051773,98.0757568 C693.070313,97.7294392 693.087168,97.3848446 693.087168,97.0557568 C693.087168,69.629473 714.547991,47.31525 740.92864,47.31525 C765.88677,47.31525 786.92286,67.5343378 788.822361,93.4168378 L788.936971,95.8858581 C788.950455,96.3200473 788.963939,96.7525135 788.963939,97.1901486 C788.963939,97.6295068 788.950455,98.0636959 788.936971,98.4944392" id="path96" fill="#FFFFFF"></path>
                    </g>
                </g>
            </g>
        </g>
    </g>
</svg>