<?xml version="1.0" encoding="UTF-8"?>
<svg width="929px" height="796px" viewBox="0 0 929 796" version="1.1" xmlns="http://www.w3.org/2000/svg" xmlns:xlink="http://www.w3.org/1999/xlink">
    <!-- Generator: Sketch 46.2 (44496) - http://www.bohemiancoding.com/sketch -->
    <title>brain outlines</title>
    <desc>Created with Sketch.</desc>
    <defs></defs>
    <g id="Page-1" stroke="none" stroke-width="1" fill="none" fill-rule="evenodd" opacity="0.806521703">
        <g id="test-desk-2a" transform="translate(-176.000000, -4352.000000)" stroke="#B0B0B0">
            <path d="M642.133489,4376.3374 C633.27287,4379.04419 625.950718,4380.99607 618.839129,4383.51583 C607.652131,4387.474 606.721579,4391.01051 615.048998,4399.94019 C631.455917,4417.53092 653.065775,4427.05909 674.291864,4437.01232 C675.697881,4437.67201 680.09253,4435.70993 680.421959,4434.32593 C683.383423,4422.02296 685.899989,4409.60438 688.087125,4397.13819 C688.396177,4395.37673 686.694693,4391.94224 685.15283,4391.37096 C670.678335,4386.02199 656.040823,4381.12869 642.133489,4376.3374 L642.133489,4376.3374 Z M688.773152,5122.3026 C705.750628,5119.5244 722.755273,5116.90602 739.691995,5113.89659 C747.333387,5112.53979 749.011097,5108.3844 744.371923,5101.81125 C719.573058,5066.69441 694.662118,5031.65237 669.44892,4996.83477 C667.876491,4994.66525 662.890907,4993.02962 660.336984,4993.83213 C646.623232,4998.15076 633.1574,5003.28209 619.640626,5008.2128 C614.369764,5010.13748 612.831297,5013.21832 615.745214,5018.68971 C631.425351,5048.12434 647.231147,5077.50116 662.208276,5107.29284 C668.053092,5118.91571 675.891463,5123.99604 688.773152,5122.3026 L688.773152,5122.3026 Z M573.588501,4955.43042 C579.443506,4952.87665 585.509074,4950.71054 591.09578,4947.6705 C597.439834,4944.2088 597.521342,4941.12796 591.547472,4937.214 C576.210348,4927.17916 559.304192,4922.90814 541.389372,4927.24036 C503.481274,4936.39788 466.170902,4931.6542 428.880907,4923.86028 C422.231197,4922.46948 415.652808,4920.73863 409.040456,4919.1642 C408.517445,4919.90551 407.994434,4920.64002 407.468027,4921.38132 C413.078507,4931.71881 419.018416,4941.89307 424.200979,4952.44139 C429.719762,4963.6596 439.171315,4968.78073 450.585857,4971.69155 C479.58579,4979.09102 509.292128,4979.50928 538.906769,4981.01229 C543.573112,4981.25373 548.633412,4981.7876 552.722406,4983.79389 C569.71007,4992.11489 587.193576,4995.15492 605.315563,4989.04085 C637.110547,4978.3055 668.905532,4967.51575 700.33373,4955.76366 C717.966667,4949.17352 734.866031,4940.61449 754.023851,4932.08266 C746.107368,4924.81242 739.545959,4918.78335 734.679241,4914.31171 C726.52163,4918.11685 720.28965,4923.12917 713.687487,4923.66985 C699.151861,4924.86682 684.341145,4924.78181 669.805518,4923.44202 C648.572636,4921.47654 629.319723,4921.11949 613.921469,4940.57028 C604.480104,4952.49919 588.728647,4954.95775 573.588501,4955.43042 L573.588501,4955.43042 Z M787.170513,4854.20807 C786.68486,4854.12306 786.195811,4854.03805 785.706762,4853.95303 C785.83242,4852.09637 785.924117,4850.2363 786.076945,4848.37963 C787.027873,4836.84177 788.542567,4825.31412 788.763318,4813.76266 C788.916146,4805.63549 784.630174,4803.36736 777.820845,4807.95462 C770.12851,4813.13697 762.816546,4819.09122 756.143063,4825.54875 C745.397568,4835.94064 733.983026,4846.26793 733.653597,4862.99493 C733.497373,4870.91467 733.079643,4878.91262 733.891329,4886.76095 C737.070148,4917.65099 754.472146,4929.32486 784.317726,4921.01747 C825.36389,4909.58843 865.774969,4895.67703 908.240734,4889.78398 C911.355025,4889.35212 915.158741,4885.7034 916.564757,4882.60215 C920.786202,4873.30181 916.062123,4862.81471 906.831321,4858.53349 C897.607312,4854.25228 888.39349,4849.93366 879.305328,4845.3702 C856.503413,4833.91395 854.329861,4834.79128 845.319811,4858.70352 C843.271917,4864.1341 840.28668,4869.21103 837.729361,4874.45458 C837.131634,4874.12473 836.530511,4873.79488 835.932785,4873.46164 C838.208221,4868.70435 841.563642,4864.1511 842.538344,4859.13538 C844.508125,4849.00872 843.214183,4838.14076 850.672181,4829.44231 C851.500848,4828.47657 850.743501,4826.17104 850.770671,4824.4878 C850.977837,4810.67161 850.689162,4796.81802 851.633299,4783.05284 C852.108763,4776.07844 849.018245,4775.60237 844.253412,4777.06798 C839.410467,4778.554 834.716954,4780.6793 830.16608,4782.94403 C807.323412,4794.31526 790.335747,4809.79429 790.702534,4838.06935 C790.77725,4843.43192 788.410116,4848.8285 787.170513,4854.20807 L787.170513,4854.20807 Z M714.04069,5021.82836 C713.819938,5022.62407 713.602583,5023.41639 713.381832,5024.2053 C715.259916,5025.75592 717.073473,5027.38816 719.02967,5028.83336 C723.373377,5032.04003 729.218193,5034.25034 731.894378,5038.48395 C739.033137,5049.77017 750.539376,5053.29648 761.787505,5055.60201 C792.679108,5061.93032 824.185417,5064.08283 855.32494,5058.89028 C869.133785,5056.58815 883.075081,5050.48768 894.931126,5042.92499 C901.139333,5038.96682 907.313578,5033.9783 913.790083,5029.83651 C914.727427,5029.23802 915.477981,5028.32669 916.248913,5027.50377 C928.20005,5014.69753 939.682516,5001.81648 944.977152,4984.28696 C949.449914,4969.48124 955.967172,4955.3046 961.132754,4940.6893 C962.606693,4936.5067 963.496491,4931.644 962.908953,4927.32538 C962.12104,4921.48334 960.915398,4915.01561 952.2144,4915.28425 C946.128455,4915.47467 939.380257,4916.23638 934.031282,4914.04987 C919.020191,4907.91539 904.664562,4911.07444 890.064408,4914.64495 C876.798951,4917.88562 863.560663,4921.27251 850.22049,4924.19013 C838.914626,4926.66908 826.898961,4927.00913 816.2112,4931.01151 C779.746475,4944.65427 743.600991,4959.19476 707.632108,4974.1127 C699.790342,4977.36697 693.17799,4983.60687 685.93395,4988.51377 C692.753468,4998.07254 698.462438,5006.64178 704.857434,5014.66353 C706.677783,5016.94866 710.372821,5018.24764 713.439567,5018.89374 C716.825553,5019.61124 720.479836,5019.06036 724.01865,5019.06036 L724.120535,5020.29474 L714.04069,5021.82836 Z M876.965364,4478.07662 C877.138568,4478.45747 877.308377,4478.84173 877.481582,4479.22258 C873.277118,4481.85456 868.896053,4484.2485 864.905548,4487.17973 C857.858486,4492.35187 857.196232,4500.04377 858.045276,4507.83089 C858.901112,4515.66902 865.482898,4516.00567 871.368468,4517.01561 C875.267276,4517.68211 879.179669,4518.3384 883.034327,4519.21913 C897.213355,4522.45299 904.223059,4529.79465 905.82945,4544.00869 C906.563023,4550.54103 909.446375,4550.47302 914.411582,4548.57215 C925.85669,4544.19912 930.855859,4546.01498 936.87388,4556.40007 C939.567046,4561.04514 941.750786,4566.00985 944.651119,4570.5155 C955.65812,4587.57575 966.345881,4604.89444 978.361546,4621.22019 C981.431688,4625.39259 989.168173,4628.64005 994.384697,4628.16739 C1004.3219,4627.26286 1014.30666,4624.17181 1023.68689,4620.49248 C1032.9075,4616.87436 1039.82211,4610.22981 1041.27907,4599.38905 C1043.93828,4579.65261 1041.23153,4560.95333 1030.38754,4544.02229 C1018.89828,4526.07792 1001.31289,4515.01613 983.730898,4504.10736 C981.767909,4502.88998 979.149459,4502.72676 976.84006,4502.07727 C976.469877,4504.66504 975.372913,4507.40243 975.861962,4509.82018 C979.047573,4525.59845 982.579595,4541.3087 985.996146,4557.03936 C979.417756,4543.19938 973.739353,4528.85611 968.984709,4514.21021 C965.422122,4503.23343 964.946657,4490.89986 959.808246,4480.86162 C940.096849,4442.33748 906.65472,4422.64525 864.874983,4416.29994 C846.117912,4413.45033 831.208706,4419.30257 819.712656,4435.99897 C801.424257,4462.56019 781.862292,4488.28148 756.482681,4508.86804 C748.844685,4515.06373 745.441718,4523.44254 746.100576,4533.67801 C746.827357,4544.97103 746.725472,4556.32526 746.769622,4567.65229 C746.840942,4586.68823 740.079159,4602.12644 723.879407,4613.28345 C708.746054,4623.70594 693.884395,4634.59431 679.569519,4646.10836 C674.563558,4650.13454 670.331925,4656.1194 667.828945,4662.08726 C658.798517,4683.61915 656.964583,4706.39903 657.905323,4729.54615 C658.435126,4742.59723 662.507139,4745.185 674.139037,4738.9383 C676.859372,4737.47609 679.355561,4735.55482 681.824579,4733.66755 C691.031608,4726.62854 700.235241,4719.57932 709.340384,4712.40769 C715.779531,4707.33416 722.531126,4702.53267 728.287641,4696.75864 C737.324861,4687.69634 734.241135,4673.38028 724.925428,4670.09541 C739.420301,4659.5743 754.866102,4648.36289 770.318695,4637.14808 C762.049011,4646.65924 753.259711,4655.81676 743.370052,4663.55967 C736.98864,4668.55499 735.287157,4673.99577 736.68638,4681.22861 C738.105981,4688.58387 743.536464,4691.01182 750.11825,4692.13058 C769.822854,4695.48346 769.819458,4695.51406 775.270318,4676.44072 C780.503822,4658.12569 792.546657,4648.4173 811.650138,4647.97183 C820.53453,4647.761 829.449488,4648.71314 839.950459,4649.21301 C837.512006,4641.4973 835.144872,4633.99582 832.774342,4626.49435 C837.613891,4632.31258 840.959123,4638.7123 844.650764,4644.90459 C866.131567,4680.93957 907.955455,4692.2666 944.606969,4672.06089 C962.548958,4662.17227 974.941599,4638.05601 967.588881,4621.93089 C957.889407,4600.65063 946.009589,4580.29871 934.105998,4560.11681 C926.264231,4546.8243 914.988932,4551.83662 907.367917,4559.91958 C904.47098,4562.99022 904.053251,4568.66904 903.153264,4573.2801 C902.26007,4577.88776 902.17177,4582.65185 901.730267,4587.34792 C900.918582,4587.25951 900.106896,4587.1745 899.29521,4587.09288 C899.29521,4581.79832 899.06427,4576.49356 899.342757,4571.216 C899.821617,4562.1741 900.504248,4553.1424 901.312538,4544.12431 C902.073281,4535.64349 898.653333,4529.56682 890.757228,4526.80562 C884.148272,4524.49669 877.250642,4522.24896 870.342824,4521.68108 C844.559068,4519.56258 820.666981,4525.09177 799.294855,4540.79183 C802.171415,4536.80306 805.234764,4532.79388 809.232062,4530.24351 C814.679525,4526.76481 821.353008,4525.13258 826.569532,4521.39884 C834.74752,4515.55 843.156448,4509.47673 849.605783,4501.90384 C856.812465,4493.43322 854.044583,4482.88831 850.071059,4472.82286 C854.251749,4476.88305 857.546038,4482.75229 861.522959,4483.26236 C866.365903,4483.88805 871.79299,4480.00809 876.965364,4478.07662 L876.965364,4478.07662 Z M713.962578,4450.33883 C708.226439,4453.05922 704.758945,4454.70506 701.288055,4456.34069 C684.969437,4464.0292 669.455712,4473.18671 659.871708,4488.94798 C645.750415,4512.16312 652.294843,4534.97019 664.650125,4556.33206 C669.642502,4564.9625 677.772943,4571.78048 684.53133,4579.37037 C690.202942,4585.74289 691.398395,4589.22499 689.43201,4596.54964 C677.528419,4581.25084 665.777655,4566.81917 654.848766,4551.78901 C649.774882,4544.80441 644.870806,4544.0393 637.599596,4547.74923 C620.282503,4556.5871 611.554335,4571.97091 604.13709,4588.92235 C599.331503,4599.89912 600.849593,4608.22012 608.915507,4617.24502 C618.699886,4628.18779 623.950371,4641.83055 625.94053,4656.54786 C624.188104,4654.63339 623.033404,4652.42987 621.824366,4650.26036 C612.101119,4632.81585 599.453766,4618.17675 581.097443,4609.51571 C555.242367,4597.31135 528.830319,4599.066 502.723927,4608.29153 C474.345493,4618.31957 464.044896,4633.45175 465.1962,4663.40325 C465.583363,4673.45849 468.758787,4683.37772 470.117256,4693.43297 C470.793095,4698.44869 470.232726,4703.62763 470.232726,4708.73516 C469.393871,4708.75217 468.55162,4708.77257 467.712765,4708.78957 C467.284847,4706.38203 467.115038,4703.88947 466.381464,4701.57714 C462.89699,4690.57996 459.983072,4679.32094 455.449179,4668.76582 C451.431505,4659.40768 442.2924,4656.67368 433.448761,4661.92404 C420.634995,4669.53433 412.11739,4680.84776 407.614063,4695.32364 C404.696749,4704.69878 402.197165,4714.72002 396.899133,4722.71797 C388.24568,4735.77585 381.453331,4748.6365 384.801959,4765.09146 C381.701252,4760.94287 379.181291,4756.88608 377.004343,4752.65248 C372.847426,4744.57631 367.450904,4740.82558 357.873693,4744.42669 C353.305838,4746.14394 347.824413,4745.45704 342.750528,4745.77669 C338.732854,4746.02832 334.711783,4746.15414 329.050361,4746.40918 C332.928792,4753.46859 336.559302,4758.54892 338.661534,4764.20394 C343.372028,4776.89796 347.396495,4789.85042 351.560204,4802.74167 C355.105811,4813.71505 363.093613,4818.15949 374.008917,4818.77838 C391.091674,4819.74752 405.491454,4812.86833 418.556537,4802.96951 C429.91674,4794.36287 434.375917,4782.7706 431.013704,4768.43754 C430.252961,4765.19348 430.901631,4761.61956 430.901631,4758.19527 C431.625016,4758.09326 432.348401,4757.98784 433.064994,4757.88583 C434.667988,4762.31326 436.478149,4766.67609 437.82643,4771.17834 C441.541845,4783.60712 444.581421,4785.82084 457.463111,4783.63433 C468.032005,4781.84227 478.726558,4780.20664 488.959232,4777.1462 C511.611715,4770.37242 534.257406,4763.41502 556.427632,4755.23345 C570.321382,4750.10551 578.981626,4740.11147 574.909613,4723.55109 C574.766974,4722.97301 575.334135,4722.2181 575.863938,4720.70488 C577.412594,4724.58484 578.791441,4727.60108 579.83067,4730.72952 C588.344879,4756.25699 608.205707,4762.36087 633.765315,4753.75763 C643.298377,4750.54757 649.024327,4743.43715 650.158649,4733.01805 C652.145411,4714.75743 653.741613,4696.439 656.489118,4678.29399 C659.420017,4658.95881 668.959871,4643.34377 685.61471,4632.435 C696.020588,4625.61362 706.327978,4618.63242 716.581028,4611.5798 C732.067583,4600.91587 739.593506,4586.4978 737.722214,4567.33264 C736.706757,4556.93055 735.952807,4546.42984 736.231293,4536.00054 C736.703361,4518.36221 741.797623,4503.50547 758.02794,4492.69532 C778.275932,4479.21238 794.108897,4460.94496 803.529885,4437.98486 C808.980745,4424.70935 806.637384,4417.21127 795.630383,4408.15237 C777.022744,4392.84337 755.236285,4390.46983 732.380031,4392.13267 C708.732469,4393.84991 692.322154,4410.60752 691.035004,4434.38034 C690.51539,4443.99352 692.93007,4446.87373 702.687279,4448.38355 C705.624969,4448.83582 708.549076,4449.3935 713.962578,4450.33883 L713.962578,4450.33883 Z M383.06991,4511.62924 C382.621615,4510.76211 382.169924,4509.89499 381.721629,4509.03127 C384.343476,4507.42283 387.410221,4506.25307 389.509057,4504.12776 C408.860459,4484.54095 421.382154,4461.01296 428.303557,4434.51636 C430.9288,4424.47131 428.120164,4421.45848 418.148996,4420.94161 C384.642339,4419.20056 353.886584,4427.71878 325.209287,4444.93885 C289.118142,4466.61357 260.732917,4496.15702 236.728756,4530.32173 C227.41305,4543.58363 230.72432,4559.46731 244.801463,4567.81551 C248.669705,4570.10744 252.986243,4571.63086 257.058256,4573.58274 C264.835495,4577.30968 272.585565,4581.09102 280.34922,4584.84856 C280.04696,4585.48445 279.744701,4586.12034 279.442441,4586.75964 C277.200966,4585.8075 275.027415,4584.60033 272.704431,4583.94743 C258.396349,4579.91785 244.115435,4575.75225 229.661317,4572.32116 C227.032678,4571.69547 222.882553,4573.45012 220.739567,4575.48021 C205.453386,4589.9765 199.866679,4608.14531 202.6889,4628.74547 C205.066222,4646.08796 208.608432,4663.27063 211.023112,4680.60972 C214.161177,4703.15156 224.213853,4719.65753 245.511263,4730.34187 C255.801671,4735.50041 263.358159,4746.27996 271.872369,4754.79818 C276.840972,4759.7731 280.787326,4765.84977 286.034416,4770.46424 C295.214275,4778.53019 298.471206,4778.47919 310.615926,4771.21914 C309.267645,4779.91759 308.177473,4786.97701 307.056735,4794.20985 C302.291903,4788.87448 298.956859,4784.69868 295.163333,4780.99895 C285.871399,4771.93665 276.623617,4762.79953 266.876596,4754.2439 C257.126179,4745.67807 246.920675,4737.60871 236.596305,4729.74338 C234.738598,4728.32878 230.669981,4727.84931 228.85982,4728.95787 C227.304372,4729.91001 226.696457,4733.89538 227.11079,4736.29272 C228.262093,4742.96108 229.331888,4749.85047 231.902792,4756.03936 C250.299869,4800.32733 283.449927,4829.10906 328.211506,4844.21743 C339.537747,4848.03958 352.976409,4850.14789 362.58079,4837.88232 C365.606782,4834.01937 365.036224,4831.51661 361.572127,4827.79987 C356.128059,4821.95443 350.422486,4815.61592 347.423664,4808.40349 C342.896564,4797.52872 340.638108,4785.71543 337.354007,4774.31699 C332.854076,4758.68834 327.022845,4745.54545 308.615579,4740.11827 C283.966146,4732.85483 274.687797,4717.56283 275.570803,4693.22894 C276.314565,4672.87021 289.308328,4664.02554 311.977792,4670.89793 C306.822399,4670.89793 304.132629,4670.7245 301.470028,4670.92853 C291.390183,4671.70044 284.156331,4677.56629 281.048832,4687.31889 C274.691193,4707.26275 283.310684,4725.17313 303.436413,4733.20168 C328.547727,4743.21952 353.896772,4742.96448 378.495264,4732.21554 C385.831,4729.00888 392.996928,4722.81999 397.476482,4716.13803 C410.011762,4697.44894 406.04503,4678.09336 395.163687,4660.2408 C389.655093,4651.2057 381.606159,4643.72122 374.430043,4635.2064 C384.516681,4640.91582 394.144835,4646.79866 404.160153,4651.9334 C421.925542,4661.03651 440.730159,4654.27974 451.767726,4637.69556 C458.485359,4627.60291 467.006361,4617.62587 476.96734,4610.97452 C507.176311,4590.80622 541.467484,4588.25925 576.44808,4592.7785 C585.084552,4593.89726 588.732043,4591.58493 592.495004,4583.81821 C598.985094,4570.41349 606.9695,4557.66505 615.215411,4545.23287 C618.713471,4539.96211 619.698361,4536.82686 614.288255,4532.60005 C602.252213,4523.1909 590.491261,4513.4247 578.682763,4503.7299 C561.080391,4489.26763 544.989317,4472.24818 520.336487,4469.88824 C518.723304,4469.73522 517.276534,4467.87175 513.972056,4465.54922 C522.116082,4466.37894 527.658639,4467.38208 533.204592,4467.39568 C540.078449,4467.41268 545.556478,4465.38259 544.581776,4456.51072 C544.344044,4454.314 545.736475,4451.93366 546.860609,4447.92108 C550.26018,4455.13352 552.342034,4460.37367 555.082747,4465.23977 C568.691218,4489.36624 589.829007,4505.90962 612.084138,4521.22542 C617.664053,4525.06457 623.406984,4528.84931 629.530286,4531.65472 C636.747157,4534.95659 642.873855,4531.29767 642.462918,4524.00702 C641.073883,4499.5031 653.836706,4482.08239 670.590034,4466.74619 C681.107986,4457.116 681.400057,4455.40556 670.742862,4445.98281 C669.472693,4444.85724 668.216109,4443.68067 666.793111,4442.77954 C643.145549,4427.8446 619.423271,4413.02867 595.823255,4398.02571 C578.611443,4387.08294 558.838916,4383.59064 539.470534,4381.83259 C522.941353,4380.33297 505.654825,4382.73372 489.224133,4386.00839 C474.729261,4388.892 459.286856,4393.26843 450.691139,4407.01661 C439.466782,4424.97119 432.857827,4445.13608 431.733693,4466.18511 C430.483901,4489.54987 441.41279,4508.81023 457.588769,4524.97276 C459.572135,4526.95524 464.129801,4527.3565 467.301828,4526.95864 C476.376406,4525.81948 485.359287,4523.8914 494.37613,4522.27277 C476.369613,4528.50246 458.59064,4534.90898 444.652741,4547.78663 C431.152948,4560.25963 419.347845,4574.57568 406.965394,4587.9056 C402.791495,4578.02038 387.308336,4569.8014 376.35907,4573.01826 C358.926507,4578.1428 344.920684,4588.35446 335.30951,4603.97291 C321.626323,4626.21891 325.715317,4648.97838 333.811797,4671.78545 C334.738953,4674.40383 335.326491,4677.14462 336.409871,4681.03478 C329.332243,4677.81792 324.030815,4675.41038 317.146769,4672.27853 C321.408968,4672.53696 323.796479,4672.67978 326.958317,4672.87361 C326.59153,4670.34365 326.533795,4668.44277 326.017577,4666.68132 C323.568935,4658.31272 320.434266,4650.09714 318.671652,4641.58911 C317.591668,4636.37957 315.448682,4633.73059 310.469891,4632.28538 C294.3041,4627.5791 278.539059,4628.9427 263.218916,4635.29821 C253.091524,4639.50121 243.354692,4644.48293 247.773115,4659.19344 L245.25655,4658.54395 L245.25655,4621.00936 C255.455262,4631.13941 255.417904,4630.92858 267.790167,4628.78628 C283.191818,4626.12029 298.376114,4619.894 314.446811,4625.74284 C315.638868,4626.1781 319.255794,4623.69914 319.6056,4622.10431 C322.91687,4606.97894 330.802787,4594.46514 340.444526,4582.71305 C342.098463,4580.69656 343.433159,4576.40855 342.414307,4574.51788 C335.5846,4561.84085 328.289618,4549.39507 320.692375,4537.14991 C317.717327,4532.36202 313.057775,4530.78759 307.409937,4533.53859 C303.922066,4535.23883 300.131936,4536.32019 297.272357,4537.38114 C312.032131,4520.72555 326.920959,4503.91693 340.743389,4488.31209 C337.88381,4493.34481 333.995191,4499.59491 330.683921,4506.14425 C324.842501,4517.69911 323.793083,4529.17576 331.213724,4540.80883 C336.066857,4548.41913 340.087927,4556.5803 344.272014,4564.60205 C347.58668,4570.96437 351.274926,4572.42658 357.686903,4567.91753 C368.452776,4560.34464 380.339386,4557.66165 392.966363,4563.34727 C397.075734,4565.19714 401.130766,4567.32244 404.846181,4569.85921 C410.996653,4574.06221 414.756218,4572.86184 419.527843,4566.87358 C427.223574,4557.21959 436.386452,4548.73197 444.988962,4539.80909 C447.036855,4537.68718 449.312292,4535.79311 452.185456,4533.13733 C434.763081,4518.84508 425.090776,4501.05712 419.524446,4479.53203 C413.180393,4487.17973 407.352557,4494.87503 403.42658,4503.44426 C399.578714,4511.83667 397.670064,4521.1166 395.387835,4528.46506 C394.684827,4522.26937 393.795029,4513.83276 383.06991,4511.62924 L383.06991,4511.62924 Z M556.179712,4826.98376 C554.74313,4830.87392 553.333717,4834.77088 551.856382,4838.64403 C544.979128,4856.71423 552.814103,4871.39414 571.119483,4876.80772 C586.84377,4881.45278 601.450716,4877.47081 615.830119,4872.44489 C640.81917,4863.70563 663.801082,4852.01135 675.806558,4826.09623 C680.320074,4816.34703 685.309054,4806.80526 690.53237,4797.41651 C694.509291,4790.27208 699.192615,4783.51871 703.560095,4776.59532 C697.29755,4792.26817 689.89389,4807.20652 683.736625,4822.63793 C677.307667,4838.73585 684.755478,4847.27447 701.848423,4844.54048 C702.683882,4844.40446 703.495568,4844.11882 704.331027,4843.9862 C726.124278,4840.45989 744.263245,4829.95238 759.148678,4814.0347 C769.27607,4803.20414 780.894382,4795.22319 794.974921,4790.75155 C811.935416,4785.36858 828.912892,4780.03661 845.832633,4774.52102 C848.379764,4773.6879 852.40423,4772.36171 852.77781,4770.62406 C856.303039,4754.25071 872.265058,4739.96865 861.791256,4720.8409 C864.878379,4724.272 867.965501,4727.70309 871.494127,4731.62725 C860.419202,4753.10474 858.734699,4776.88096 856.163795,4800.49735 C854.93438,4811.79037 857.267552,4821.7436 867.344002,4827.91889 C879.332497,4835.26395 891.524763,4842.44238 904.24004,4848.38303 C917.570025,4854.60933 931.30755,4853.20833 944.243578,4846.15911 C952.092137,4841.8813 959.743718,4837.24643 967.480203,4832.77479 C958.232421,4841.34062 947.975974,4848.47145 937.604057,4855.43565 C930.560392,4860.16233 923.560876,4865.5555 924.861611,4874.84904 C926.298193,4885.10831 933.640722,4890.91975 943.744341,4893.03825 C968.274908,4898.18319 993.066981,4899.60459 1017.84547,4896.07489 C1040.21267,4892.88863 1054.34755,4878.7664 1061.33009,4857.9282 C1068.13942,4837.60348 1064.10476,4818.67636 1050.21101,4802.34042 C1041.91416,4792.58781 1033.42372,4793.59436 1027.2291,4804.72756 C1020.31788,4817.13934 1017.71981,4830.64948 1018.25641,4844.81592 C1018.39905,4848.55306 1018.28018,4852.3038 1018.28018,4856.04433 C1015.35947,4854.03464 1013.89232,4851.72911 1012.69687,4849.29096 C1007.15092,4837.93333 1012.24178,4827.88829 1016.47002,4817.61881 C1019.46205,4810.34517 1022.76653,4802.98311 1024.21669,4795.33541 C1026.44119,4783.58332 1019.75072,4775.87101 1007.93883,4775.86081 C1000.93931,4775.85741 993.94659,4777.78889 986.940283,4777.8467 C975.220085,4777.94871 963.489699,4777.32982 951.769501,4776.84695 C945.693745,4776.59532 939.631573,4775.99003 932.360364,4775.45615 C935.732765,4769.97797 939.845532,4763.296 943.9583,4756.61404 C944.865078,4756.82488 945.765064,4757.0323 946.671843,4757.24314 C946.254114,4766.93113 953.593246,4768.37974 959.849,4770.43703 C974.180856,4775.15351 988.811575,4775.0719 1003.41173,4771.69181 C1010.83237,4769.97456 1019.37035,4769.99497 1022.82766,4776.30287 C1028.98492,4787.54489 1038.76251,4791.26162 1049.56234,4794.66211 C1052.19438,4795.49183 1054.60227,4797.21588 1056.93544,4798.79371 C1065.03871,4804.28209 1066.76397,4804.06106 1072.07219,4795.65846 C1073.86197,4792.82245 1075.37327,4789.66339 1076.29363,4786.44653 C1079.34679,4775.769 1071.87181,4762.63971 1061.98555,4758.69174 C1057.89316,4757.06291 1054.0351,4753.30537 1051.5525,4749.53763 C1048.17331,4744.40289 1046.19673,4738.33982 1043.64621,4732.661 C1040.33154,4725.29554 1037.01348,4717.96749 1028.3838,4721.28297 C1026.37326,4705.14765 1024.40688,4689.39999 1022.56955,4674.66567 C1025.23894,4680.82395 1028.27173,4688.50226 1031.8445,4695.91872 C1039.80853,4712.4485 1047.3786,4729.21971 1056.42941,4745.1442 C1061.2282,4753.58081 1067.45339,4752.56066 1069.98014,4743.68539 C1076.4057,4721.09594 1083.08258,4698.35687 1080.67809,4674.48204 C1078.82038,4656.03439 1074.88082,4638.09681 1061.00405,4624.16161 C1056.92185,4620.06062 1052.72758,4619.2513 1047.17823,4621.16238 C1040.26362,4623.54272 1032.90071,4624.60027 1025.93516,4626.8582 C1009.61994,4632.14596 992.808872,4636.48498 977.373259,4643.71782 C964.002521,4649.97812 957.668656,4666.28006 971.059771,4680.52811 C975.777057,4685.55403 978.673994,4692.2972 982.396201,4698.25486 C981.62527,4698.69352 980.854338,4699.13558 980.083407,4699.57425 C979.468699,4698.39088 978.884557,4697.19051 978.24268,4696.02754 C971.205807,4683.27231 961.451994,4677.19563 946.111474,4680.33768 C932.309421,4683.17029 918.167751,4685.16978 904.110986,4685.67305 C887.45275,4686.26474 870.009998,4685.92809 857.440757,4672.60837 C846.949974,4661.48197 834.48941,4656.38124 819.834918,4655.93918 C796.880175,4655.24208 779.437424,4663.86232 780.228732,4691.70552 C780.432503,4698.77853 780.660046,4705.86175 781.16268,4712.92117 C781.906442,4723.50009 783.376986,4733.68795 800.432574,4732.73581 C781.064191,4740.40732 764.667461,4740.47193 753.086507,4732.75622 C759.613954,4732.75622 764.314259,4733.20848 768.85834,4732.56919 C771.164343,4732.24274 774.411086,4730.40308 775.148055,4728.458 C780.218544,4715.03967 771.490376,4702.52247 757.114369,4701.43772 C740.136894,4700.16253 726.358614,4707.80343 713.293531,4717.00855 C696.421337,4728.90006 680.140077,4741.63829 663.193167,4753.42099 C656.309121,4758.20547 648.68471,4763.57485 640.781812,4764.85003 C630.117824,4766.57068 626.966174,4772.50453 624.660172,4781.28799 C621.569653,4793.06728 616.13917,4803.67681 606.884595,4812.32085 C610.664537,4803.42857 614.818059,4795.12458 617.755749,4786.40913 C622.014552,4773.76271 618.485927,4767.78465 606.405735,4762.23845 C591.90407,4755.5837 578.387296,4760.20156 564.381473,4764.01691 C531.173679,4773.07241 497.745135,4781.3288 464.516965,4790.31289 C450.416049,4794.12824 434.712138,4793.97861 424.411541,4807.70299 C420.132362,4813.40561 413.713592,4817.93846 407.444254,4821.58718 C399.731542,4826.07923 398.926649,4832.18991 400.611151,4839.64038 C401.208878,4842.27916 402.316031,4844.80912 403.188848,4847.38329 C399.44966,4843.78557 396.987433,4839.52136 395.601794,4834.9307 C393.69654,4828.62959 390.259612,4829.07506 386.140052,4832.1219 C380.091466,4836.59694 374.898715,4852.96009 377.585089,4860.14192 C382.326148,4872.83595 388.564921,4884.88388 401.769247,4890.52869 C426.136798,4900.95119 450.6368,4911.11865 475.398307,4920.56181 C489.961103,4926.1182 505.097853,4929.83494 521.036099,4925.86997 C532.814032,4922.93535 544.670077,4920.24896 556.58046,4917.91282 C566.436158,4915.97795 575.999785,4915.84533 585.023421,4922.16684 C589.76448,4925.49251 595.667031,4927.65182 601.362416,4928.93381 C604.446142,4929.63091 609.598139,4928.50535 611.387922,4926.26102 C618.125932,4917.81081 626.894855,4913.30856 637.039228,4913.35617 C658.146451,4913.44798 679.280845,4914.32191 700.343918,4915.75011 C713.765599,4916.65804 725.879753,4908.36425 726.640497,4895.34718 C727.32992,4883.59169 727.261996,4871.77499 727.109169,4859.9923 C726.997095,4851.47748 724.497511,4849.96086 716.058017,4850.80758 C706.847592,4851.73251 696.159831,4855.22482 688.630513,4851.89914 C674.495635,4845.64904 665.040685,4851.31765 654.692542,4858.49269 C650.518644,4861.3899 646.12739,4864.01168 641.675006,4866.47363 C634.930203,4870.20057 635.7317,4875.17888 641.264069,4877.96728 C648.596409,4881.65681 656.900055,4883.41827 663.872401,4885.7102 C664.98295,4885.0403 664.164472,4885.717 663.227128,4886.07405 C650.70883,4890.89594 638.890143,4888.21296 627.190322,4882.9354 C623.688866,4881.35417 619.715342,4879.63352 616.061058,4879.83755 C607.638546,4880.31022 599.294145,4882.74837 590.888614,4882.90819 C571.934565,4883.27205 554.434078,4880.64347 543.854995,4861.13487 C540.710137,4855.34383 533.381193,4850.83138 526.962423,4848.07019 C519.402539,4844.81252 510.749087,4844.09162 500.040949,4841.70447 C506.418964,4841.03118 510.490977,4840.75914 514.512048,4840.15385 C528.942393,4837.97754 546.031942,4843.94539 556.179712,4826.98376 L556.179712,4826.98376 Z M761.437699,5082.61549 C764.582557,5087.71963 766.351964,5090.83787 768.359103,5093.7963 C770.423977,5096.83634 772.86243,5099.62474 774.889946,5102.68858 C787.014289,5120.98321 783.723396,5131.17107 762.442967,5135.5339 C739.505205,5140.24017 716.163299,5142.98777 692.97422,5146.42906 C689.082204,5147.00715 685.061133,5146.6671 681.111383,5146.89833 C664.212019,5147.88787 651.754851,5141.70919 643.896104,5125.94112 C626.989948,5092.03145 609.628704,5058.34281 592.067086,5024.76638 C590.443715,5021.66513 586.361513,5018.90054 582.877038,5017.9212 C572.899078,5015.11919 561.956604,5014.86416 552.664671,5010.73936 C539.613173,5004.94153 526.120172,5005.62503 512.779999,5004.76131 C485.607208,5003.01005 458.824976,4999.91561 432.878204,4991.01993 C418.688988,4986.15723 408.21179,4977.54379 401.555288,4964.21728 C388.035117,4937.14939 374.182122,4910.23452 361.351375,4882.83678 C357.605395,4874.84223 352.575661,4870.63583 344.543708,4868.06506 C305.694869,4855.64308 269.202976,4838.68144 239.09589,4810.28736 C219.608641,4791.91452 207.42996,4769.72293 202.257586,4743.04269 C198.290854,4722.57855 191.30832,4702.7163 186.146135,4682.46299 C180.47792,4660.21699 176.202136,4637.76357 177.125895,4614.55523 C177.886639,4595.41388 184.488802,4578.8773 196.378808,4563.97296 C200.121392,4559.28369 204.190009,4553.16281 204.319064,4547.60981 C204.665474,4532.69187 211.444238,4521.27643 219.832788,4509.92559 C250.055344,4469.05852 285.572536,4434.39734 332.242765,4412.68182 C354.521669,4402.31713 377.76169,4395.53656 402.597913,4396.29146 C411.441551,4396.5601 418.875777,4394.55381 426.252268,4389.31706 C454.508439,4369.24058 486.69738,4361.7731 520.82214,4362.31718 C542.533883,4362.66403 564.218456,4364.5445 585.930199,4365.11578 C591.710488,4365.26881 598.1802,4364.38808 603.257481,4361.83431 C631.004226,4347.88211 658.210979,4351.90829 684.986418,4363.8304 C698.564323,4369.87987 711.833176,4370.0771 726.243144,4367.92119 C756.968334,4363.32713 785.771289,4368.44146 811.330897,4387.76984 C823.282035,4396.81174 838.398407,4394.4654 852.15631,4396.44789 C879.740038,4400.41966 906.549439,4406.31951 931.018875,4420.46894 C950.974796,4432.0102 967.045493,4447.57423 980.694718,4466.02869 C984.800693,4471.57828 989.731938,4477.03607 995.42053,4480.81061 C1031.99393,4505.05269 1054.24906,4538.63932 1063.46628,4581.43107 C1064.75683,4587.43633 1068.21074,4593.496 1072.14011,4598.3247 C1095.59409,4627.14724 1106.22751,4660.10818 1103.61246,4696.94567 C1102.47814,4712.92117 1098.56914,4728.68243 1096.39898,4744.60692 C1095.78767,4749.09556 1095.74352,4754.2405 1097.33293,4758.35169 C1104.8215,4777.72768 1104.07434,4795.74347 1091.57302,4813.07236 C1089.17532,4816.39124 1088.27194,4821.99864 1088.96476,4826.16424 C1095.4107,4864.855 1072.91444,4905.52484 1036.95235,4917.19872 C1025.85025,4920.79984 1013.74289,4921.77578 1001.99552,4922.75852 C990.20061,4923.74466 990.003632,4923.95209 987.867438,4935.91841 C979.387191,4983.49125 961.112376,5025.93275 921.839016,5056.60175 C895.963563,5076.80406 866.444015,5087.04973 833.541878,5086.09759 C814.384058,5085.54331 795.256804,5083.77166 776.109173,5082.6495 C772.030367,5082.41146 767.924392,5082.61549 761.437699,5082.61549 L761.437699,5082.61549 Z" id="brain-outlines"></path>
        </g>
    </g>
</svg>