<?xml version="1.0" encoding="UTF-8"?>
<svg width="927px" height="794px" viewBox="0 0 927 794" version="1.1" xmlns="http://www.w3.org/2000/svg" xmlns:xlink="http://www.w3.org/1999/xlink">
    <!-- Generator: Sketch 46.2 (44496) - http://www.bohemiancoding.com/sketch -->
    <title>brain fill</title>
    <desc>Created with Sketch.</desc>
    <defs></defs>
    <g id="Page-1" stroke="none" stroke-width="1" fill="none" fill-rule="evenodd" opacity="0.996603261">
        <g id="test-desk-2a" transform="translate(-178.000000, -4353.000000)" fill="#B0B0B0">
            <g id="Page-1" transform="translate(178.000000, 4353.000000)">
                <path d="M465.133489,23.3373965 C456.27287,26.0441855 448.950718,27.996066 441.839129,30.5158281 C430.652131,34.4739969 429.721579,38.0105051 438.048998,46.9401884 C454.455917,64.5309163 476.065775,74.0590856 497.291864,84.0123159 C498.697881,84.6720107 503.09253,82.7099287 503.421959,81.3259298 C506.383423,69.0229618 508.899989,56.6043772 511.087125,44.1381857 C511.396177,42.3767326 509.694693,38.942239 508.15283,38.3709569 C493.678335,33.0219883 479.040823,28.1286851 465.133489,23.3373965 L465.133489,23.3373965 Z M511.773152,769.302597 C528.750628,766.524397 545.755273,763.906021 562.691995,760.896589 C570.333387,759.539794 572.011097,755.384396 567.371923,748.811252 C542.573058,713.694405 517.662118,678.65237 492.44892,643.834766 C490.876491,641.665254 485.890907,640.029619 483.336984,640.832135 C469.623232,645.150755 456.1574,650.282093 442.640626,655.212801 C437.369764,657.137478 435.831297,660.21832 438.745214,665.689707 C454.425351,695.124337 470.231147,724.501158 485.208276,754.29284 C491.053092,765.91571 498.891463,770.99604 511.773152,769.302597 L511.773152,769.302597 Z M396.588501,602.430416 C402.443506,599.876649 408.509074,597.710538 414.09578,594.670501 C420.439834,591.208803 420.521342,588.127961 414.547472,584.213998 C399.210348,574.179156 382.304192,569.908142 364.389372,574.240365 C326.481274,583.397881 289.170902,578.654199 251.880907,570.860279 C245.231197,569.469479 238.652808,567.738631 232.040456,566.164204 C231.517445,566.905511 230.994434,567.640016 230.468027,568.381323 C236.078507,578.718808 242.018416,588.893071 247.200979,599.441386 C252.719762,610.659599 262.171315,615.780734 273.585857,618.691553 C302.58579,626.091016 332.292128,626.509276 361.906769,628.012292 C366.573112,628.253727 371.633412,628.787604 375.722406,630.793892 C392.71007,639.114888 410.193576,642.154925 428.315563,636.040846 C460.110547,625.305503 491.905532,614.515753 523.33373,602.763664 C540.966667,596.173517 557.866031,587.614487 577.023851,579.082661 C569.107368,571.812416 562.545959,565.78335 557.679241,561.311707 C549.52163,565.116854 543.28965,570.129174 536.687487,570.669852 C522.151861,571.866824 507.341145,571.781812 492.805518,570.442019 C471.572636,568.476537 452.319723,568.119485 436.921469,587.57028 C427.480104,599.499195 411.728647,601.957748 396.588501,602.430416 L396.588501,602.430416 Z M610.170513,501.20807 C609.68486,501.123057 609.195811,501.038045 608.706762,500.953033 C608.83242,499.096366 608.924117,497.236299 609.076945,495.379632 C610.027873,483.841774 611.542567,472.314117 611.763318,460.762657 C611.916146,452.635489 607.630174,450.367363 600.820845,454.954623 C593.12851,460.136967 585.816546,466.091223 579.143063,472.548751 C568.397568,482.940644 556.983026,493.267929 556.653597,509.994932 C556.497373,517.91467 556.079643,525.91262 556.891329,533.760948 C560.070148,564.650987 577.472146,576.324864 607.317726,568.017471 C648.36389,556.588428 688.774969,542.677029 731.240734,536.783982 C734.355025,536.35212 738.158741,532.703396 739.564757,529.60215 C743.786202,520.301814 739.062123,509.814706 729.831321,505.533491 C720.607312,501.252276 711.39349,496.933655 702.305328,492.3702 C679.503413,480.913953 677.329861,481.791279 668.319811,505.703516 C666.271917,511.134096 663.28668,516.211026 660.729361,521.454579 C660.131634,521.124732 659.530511,520.794884 658.932785,520.461637 C661.208221,515.704353 664.563642,511.151099 665.538344,506.135378 C667.508125,496.008722 666.214183,485.140761 673.672181,476.442311 C674.500848,475.476572 673.743501,473.171041 673.770671,471.487799 C673.977837,457.671613 673.689162,443.818022 674.633299,430.052844 C675.108763,423.078442 672.018245,422.602373 667.253412,424.067984 C662.410467,425.553998 657.716954,427.679303 653.16608,429.944029 C630.323412,441.315263 613.335747,456.794287 613.702534,485.06935 C613.77725,490.431921 611.410116,495.828497 610.170513,501.20807 L610.170513,501.20807 Z M537.04069,668.828358 C536.819938,669.624072 536.602583,670.416386 536.381832,671.205299 C538.259916,672.755922 540.073473,674.388157 542.02967,675.833364 C546.373377,679.040025 552.218193,681.250343 554.894378,685.483951 C562.033137,696.770173 573.539376,700.29648 584.787505,702.602011 C615.679108,708.930321 647.185417,711.08283 678.32494,705.890284 C692.133785,703.588153 706.075081,697.487676 717.931126,689.924989 C724.139333,685.966821 730.313578,680.978304 736.790083,676.836509 C737.727427,676.238023 738.477981,675.326692 739.248913,674.503773 C751.20005,661.697533 762.682516,648.816482 767.977152,631.286963 C772.449914,616.481235 778.967172,602.304598 784.132754,587.689298 C785.606693,583.506696 786.496491,578.643998 785.908953,574.325377 C785.12104,568.483338 783.915398,562.015608 775.2144,562.284247 C769.128455,562.474674 762.380257,563.236384 757.031282,561.049869 C742.020191,554.915388 727.664562,558.074442 713.064408,561.644955 C699.798951,564.885621 686.560663,568.272507 673.22049,571.190127 C661.914626,573.669083 649.898961,574.009132 639.2112,578.011507 C602.746475,591.654267 566.600991,606.194757 530.632108,621.112701 C522.790342,624.366968 516.17799,630.606865 508.93395,635.51377 C515.753468,645.072544 521.462438,653.641775 527.857434,661.663528 C529.677783,663.948657 533.372821,665.247643 536.439567,665.893736 C539.825553,666.611239 543.479836,666.06036 547.01865,666.06036 L547.120535,667.294737 L537.04069,668.828358 Z M699.965364,125.076617 C700.138568,125.457472 700.308377,125.841727 700.481582,126.222582 C696.277118,128.85456 691.896053,131.248504 687.905548,134.179725 C680.858486,139.351869 680.196232,147.043774 681.045276,154.830893 C681.901112,162.669019 688.482898,163.005668 694.368468,164.015613 C698.267276,164.682109 702.179669,165.338403 706.034327,166.21913 C720.213355,169.452994 727.223059,176.794649 728.82945,191.008692 C729.563023,197.541031 732.446375,197.473021 737.411582,195.572148 C748.85669,191.199119 753.855859,193.01498 759.87388,203.400073 C762.567046,208.04514 764.750786,213.009854 767.651119,217.515501 C778.65812,234.575753 789.345881,251.894442 801.361546,268.220188 C804.431688,272.392587 812.168173,275.640054 817.384697,275.167386 C827.321903,274.262856 837.306656,271.171812 846.68689,267.492483 C855.907503,263.874363 862.822114,257.229808 864.279073,246.38905 C866.938278,226.652614 864.231527,207.953327 853.387542,191.022294 C841.898284,173.077915 824.312893,162.016126 806.730898,151.107358 C804.767909,149.889983 802.149459,149.726759 799.84006,149.077266 C799.469877,151.665038 798.372913,154.402431 798.861962,156.820179 C802.047573,172.598446 805.579595,188.308704 808.996146,204.039365 C802.417756,190.199376 796.739353,175.856114 791.984709,161.21021 C788.422122,150.233432 787.946657,137.89986 782.808246,127.861617 C763.096849,89.3374812 729.65472,69.6452513 687.874983,63.2999394 C669.117912,60.4503299 654.208706,66.3025709 642.712656,82.9989703 C624.424257,109.560187 604.862292,135.281484 579.482681,155.868042 C571.844685,162.063732 568.441718,170.442536 569.100576,180.678007 C569.827357,191.97103 569.725472,203.325262 569.769622,214.65229 C569.840942,233.688225 563.079159,249.126444 546.879407,260.283447 C531.746054,270.705945 516.884395,281.59431 502.569519,293.108364 C497.563558,297.134543 493.331925,303.119403 490.828945,309.087261 C481.798517,330.619155 479.964583,353.399029 480.905323,376.546155 C481.435126,389.59723 485.507139,392.185002 497.139037,385.938305 C499.859372,384.476094 502.355561,382.554818 504.824579,380.667547 C514.031608,373.628536 523.235241,366.579323 532.340384,359.407692 C538.779531,354.334163 545.531126,349.532673 551.287641,343.758643 C560.324861,334.696341 557.241135,320.380284 547.925428,317.095411 C562.420301,306.5743 577.866102,295.362888 593.318695,284.148077 C585.049011,293.659244 576.259711,302.81676 566.370052,310.559672 C559.98864,315.55499 558.287157,320.995772 559.68638,328.228611 C561.105981,335.583868 566.536464,338.011817 573.11825,339.130578 C592.822854,342.48346 592.819458,342.514064 598.270318,323.440723 C603.503822,305.125691 615.546657,295.417296 634.650138,294.971832 C643.53453,294.761002 652.449488,295.713139 662.950459,296.213011 C660.512006,288.497302 658.144872,280.995824 655.774342,273.494346 C660.613891,279.312582 663.959123,285.712301 667.650764,291.904591 C689.131567,327.93957 730.955455,339.266598 767.606969,319.060894 C785.548958,309.172273 797.941599,285.056007 790.588881,268.93089 C780.889407,247.650632 769.009589,227.298707 757.105998,207.116807 C749.264231,193.824297 737.988932,198.836617 730.367917,206.919578 C727.47098,209.99022 727.053251,215.669036 726.153264,220.280098 C725.26007,224.887761 725.17177,229.651845 724.730267,234.34792 C723.918582,234.259507 723.106896,234.174495 722.29521,234.092883 C722.29521,228.798323 722.06427,223.49356 722.342757,218.216002 C722.821617,209.174102 723.504248,200.142405 724.312538,191.124309 C725.073281,182.64349 721.653333,176.566817 713.757228,173.80562 C707.148272,171.496688 700.250642,169.248965 693.342824,168.681083 C667.559068,166.562579 643.666981,172.091773 622.294855,187.79183 C625.171415,183.803056 628.234764,179.79388 632.232062,177.243514 C637.679525,173.764814 644.353008,172.132579 649.569532,168.398843 C657.74752,162.550002 666.156448,156.47673 672.605783,148.903841 C679.812465,140.433224 677.044583,129.888309 673.071059,119.822862 C677.251749,123.883046 680.546038,129.752289 684.522959,130.262362 C689.365903,130.888052 694.79299,127.008095 699.965364,125.076617 L699.965364,125.076617 Z M536.962578,97.338831 C531.226439,100.059222 527.758945,101.705058 524.288055,103.340694 C507.969437,111.029198 492.455712,120.186714 482.871708,135.947979 C468.750415,159.163116 475.294843,181.970193 487.650125,203.332063 C492.642502,211.962503 500.772943,218.780483 507.53133,226.370374 C513.202942,232.742889 514.398395,236.22499 512.43201,243.549642 C500.528419,228.250844 488.777655,213.81917 477.848766,198.78901 C472.774882,191.804406 467.870806,191.039296 460.599596,194.74923 C443.282503,203.5871 434.554335,218.97091 427.13709,235.922346 C422.331503,246.899124 423.849593,255.22012 431.915507,264.245017 C441.699886,275.187789 446.950371,288.83055 448.94053,303.547865 C447.188104,301.633389 446.033404,299.429873 444.824366,297.260361 C435.101119,279.815854 422.453766,265.17675 404.097443,256.515706 C378.242367,244.311352 351.830319,246.066004 325.723927,255.29153 C297.345493,265.319571 287.044896,280.451746 288.1962,310.40325 C288.583363,320.458495 291.758787,330.37772 293.117256,340.432965 C293.793095,345.448686 293.232726,350.62763 293.232726,355.735164 C292.393871,355.752167 291.55162,355.77257 290.712765,355.789572 C290.284847,353.382026 290.115038,350.889468 289.381464,348.577136 C285.89699,337.579955 282.983072,326.320937 278.449179,315.76582 C274.431505,306.407676 265.2924,303.673683 256.448761,308.924037 C243.634995,316.534331 235.11739,327.847757 230.614063,342.323637 C227.696749,351.698784 225.197165,361.720024 219.899133,369.717974 C211.24568,382.77585 204.453331,395.636498 207.801959,412.091463 C204.701252,407.942867 202.181291,403.886084 200.004343,399.652475 C195.847426,391.576315 190.450904,387.825576 180.873693,391.426693 C176.305838,393.14394 170.824413,392.457041 165.750528,392.776687 C161.732854,393.028324 157.711783,393.154142 152.050361,393.409178 C155.928792,400.468593 159.559302,405.548923 161.661534,411.203935 C166.372028,423.89796 170.396495,436.850421 174.560204,449.741674 C178.105811,460.715051 186.093613,465.159489 197.008917,465.778378 C214.091674,466.747517 228.491454,459.868329 241.556537,449.969506 C252.91674,441.362869 257.375917,429.770604 254.013704,415.437544 C253.252961,412.193478 253.901631,408.619564 253.901631,405.195272 C254.625016,405.093257 255.348401,404.987842 256.064994,404.885828 C257.667988,409.313264 259.478149,413.676091 260.82643,418.178338 C264.541845,430.607124 267.581421,432.820842 280.463111,430.634328 C291.032005,428.84227 301.726558,427.206635 311.959232,424.146195 C334.611715,417.372422 357.257406,410.415022 379.427632,402.233446 C393.321382,397.105509 401.981626,387.111473 397.909613,370.551093 C397.766974,369.97301 398.334135,369.218102 398.863938,367.704884 C400.412594,371.584842 401.791441,374.601075 402.83067,377.729525 C411.344879,403.256993 431.205707,409.360871 456.765315,400.757634 C466.298377,397.547573 472.024327,390.437151 473.158649,380.018054 C475.145411,361.75743 476.741613,343.438997 479.489118,325.29399 C482.420017,305.958811 491.959871,290.343767 508.61471,279.434999 C519.020588,272.613619 529.327978,265.632416 539.581028,258.579802 C555.067583,247.91587 562.593506,233.497798 560.722214,214.332644 C559.706757,203.930549 558.952807,193.42984 559.231293,183.000541 C559.703361,165.362206 564.797623,150.505471 581.02794,139.695318 C601.275932,126.21238 617.108897,107.944955 626.529885,84.9848557 C631.980745,71.7093479 629.637384,64.2112704 618.630383,55.1523685 C600.022744,39.8433685 578.236285,37.4698274 555.380031,39.1326664 C531.732469,40.8499132 515.322154,57.6075214 514.035004,81.3803377 C513.51539,90.9935191 515.93007,93.873733 525.687279,95.38355 C528.624969,95.835815 531.549076,96.3934952 536.962578,97.338831 L536.962578,97.338831 Z M206.06991,158.629239 C205.621615,157.762114 205.169924,156.89499 204.721629,156.031265 C207.343476,154.422834 210.410221,153.253066 212.509057,151.127761 C231.860459,131.540946 244.382154,108.012965 251.303557,81.5163572 C253.9288,71.4713137 251.120164,68.4584807 241.148996,67.9416064 C207.642339,66.2005562 176.886584,74.7187804 148.209287,91.938855 C112.118142,113.61357 83.7329166,143.157015 59.728756,177.321725 C50.4130496,190.583631 53.7243197,206.467313 67.8014625,214.815513 C71.6697052,217.107443 75.9862428,218.630861 80.0582559,220.582742 C87.8354953,224.309678 95.5855652,228.091021 103.34922,231.848561 C103.04696,232.484452 102.744701,233.120344 102.442441,233.759636 C100.200966,232.807499 98.0274146,231.600325 95.7044313,230.947431 C81.3963486,226.917852 67.1154353,222.752254 52.6613171,219.321161 C50.0326781,218.695471 45.882553,220.450123 43.739567,222.480215 C28.453386,236.976498 22.8666792,255.145309 25.6889001,275.745469 C28.0662222,293.087961 31.608432,310.270631 34.023112,327.609722 C37.1611772,350.151562 47.2138534,366.657534 68.511263,377.341869 C78.8016714,382.500411 86.3581594,393.27996 94.8723686,401.798184 C99.8409717,406.773099 103.787326,412.849772 109.034416,417.464235 C118.214275,425.530194 121.471206,425.479187 133.615926,418.219144 C132.267645,426.917594 131.177473,433.977008 130.056735,441.209848 C125.291903,435.874481 121.956859,431.698681 118.163333,427.998949 C108.871399,418.936647 99.6236166,409.799534 89.8765961,401.243904 C80.1261794,392.678073 69.9206753,384.608714 59.5963052,376.743383 C57.7385978,375.32878 53.6699809,374.849311 51.8598199,375.95787 C50.3043721,376.910007 49.6964568,380.89538 50.1107901,383.292724 C51.2620932,389.961083 52.3318882,396.850473 54.9027922,403.039362 C73.2998689,447.327327 106.449927,476.109063 151.211506,491.217434 C162.537747,495.039583 175.976409,497.147886 185.58079,484.882324 C188.606782,481.019368 188.036224,478.516609 184.572127,474.799875 C179.128059,468.954435 173.422486,462.615924 170.423664,455.403487 C165.896564,444.528724 163.638108,432.715427 160.354007,421.316989 C155.854076,405.688343 150.022845,392.545454 131.615579,387.118274 C106.966146,379.85483 97.6877972,364.562833 98.5708025,340.228936 C99.3145647,319.87021 112.308328,311.025539 134.977792,317.897927 C129.822399,317.897927 127.132629,317.724502 124.470028,317.928531 C114.390183,318.700442 107.156331,324.566285 104.048832,334.318887 C97.6911933,354.262753 106.310684,372.173126 126.436413,380.20168 C151.547727,390.21952 176.896772,389.964483 201.495264,379.215539 C208.831,376.008878 215.996928,369.819988 220.476482,363.138028 C233.011762,344.448942 229.04503,325.093361 218.163687,307.240795 C212.655093,298.205697 204.606159,290.721221 197.430043,282.206398 C207.516681,287.915818 217.144835,293.798664 227.160153,298.933401 C244.925542,308.03651 263.730159,301.279739 274.767726,284.695555 C281.485359,274.602905 290.006361,264.625871 299.96734,257.974515 C330.176311,237.806217 364.467484,235.259251 399.44808,239.778501 C408.084552,240.897261 411.732043,238.584929 415.495004,230.818213 C421.985094,217.413487 429.9695,204.665054 438.215411,192.232868 C441.713471,186.96211 442.698361,183.82686 437.288255,179.600052 C425.252213,170.1909 413.491261,160.424697 401.682763,150.729904 C384.080391,136.267625 367.989317,119.24818 343.336487,116.88824 C341.723304,116.735218 340.276534,114.871751 336.972056,112.549217 C345.116082,113.378936 350.658639,114.38208 356.204592,114.395682 C363.078449,114.412685 368.556478,112.382593 367.581776,103.510718 C367.344044,101.314002 368.736475,98.9336602 369.860609,94.9210836 C373.26018,102.13352 375.342034,107.373673 378.082747,112.239772 C391.691218,136.366239 412.829007,152.909617 435.084138,168.225418 C440.664053,172.06457 446.406984,175.849313 452.530286,178.654717 C459.747157,181.956591 465.873855,178.297665 465.462918,171.007018 C464.073883,146.503096 476.836706,129.082393 493.590034,113.746189 C504.107986,104.116005 504.400057,102.405559 493.742862,92.982805 C492.472693,91.8572433 491.216109,90.6806742 489.793111,89.7795447 C466.145549,74.8445984 442.423271,60.0286693 418.823255,45.0257133 C401.611443,34.0829407 381.838916,30.5906389 362.470534,28.8325862 C345.941353,27.3329707 328.654825,29.7337157 312.224133,33.0083863 C297.729261,35.8920007 282.286856,40.2684296 273.691139,54.0166053 C262.466782,71.9711855 255.857827,92.1360833 254.733693,113.185108 C253.483901,136.549866 264.41279,155.810234 280.588769,171.972756 C282.572135,173.955241 287.129801,174.356499 290.301828,173.958642 C299.376406,172.819478 308.359287,170.891401 317.37613,169.272768 C299.369613,175.502464 281.59064,181.908984 267.652741,194.786635 C254.152948,207.259627 242.347845,221.575685 229.965394,234.9056 C225.791495,225.02038 210.308336,216.801399 199.35907,220.018261 C181.926507,225.142797 167.920684,235.354465 158.30951,250.972909 C144.626323,273.218906 148.715317,295.978377 156.811797,318.785454 C157.738953,321.403831 158.326491,324.144624 159.409871,328.034784 C152.332243,324.817921 147.030815,322.410375 140.146769,319.278525 C144.408968,319.536962 146.796479,319.679783 149.958317,319.873611 C149.59153,317.343647 149.533795,315.442774 149.017577,313.681321 C146.568935,305.312718 143.434266,297.097138 141.671652,288.589115 C140.591668,283.379566 138.448682,280.730586 133.469891,279.285378 C117.3041,274.579102 101.539059,275.942698 86.2189162,282.298211 C76.0915242,286.501215 66.3546922,291.482931 70.7731151,306.193445 L68.2565499,305.543951 L68.2565499,268.009357 C78.4552616,278.139413 78.4179037,277.928583 90.790167,275.786275 C106.191818,273.120292 121.376114,266.893997 137.446811,272.742838 C138.638868,273.1781 142.255794,270.699144 142.6056,269.104315 C145.91687,253.978941 153.802787,241.465143 163.444526,229.713054 C165.098463,227.696564 166.433159,223.408548 165.414307,221.517876 C158.5846,208.840855 151.289618,196.395066 143.692375,184.149906 C140.717327,179.362018 136.057775,177.787592 130.409937,180.538587 C126.922066,182.238832 123.131936,183.320187 120.272357,184.38114 C135.032131,167.725546 149.920959,150.916931 163.743389,135.312088 C160.88381,140.344811 156.995191,146.594909 153.683921,153.144251 C147.842501,164.699111 146.793083,176.17576 154.213724,187.808832 C159.066857,195.419126 163.087927,203.580299 167.272014,211.602051 C170.58668,217.964366 174.274926,219.426576 180.686903,214.917528 C191.452776,207.34464 203.339386,204.661654 215.966363,210.347271 C220.075734,212.197137 224.130766,214.322442 227.846181,216.859207 C233.996653,221.062211 237.756218,219.861838 242.527843,213.873578 C250.223574,204.21959 259.386452,195.731971 267.988962,186.809088 C270.036855,184.687184 272.312292,182.793111 275.185456,180.13733 C257.763081,165.845076 248.090776,148.05712 242.524446,126.532026 C236.180393,134.179725 230.352557,141.875031 226.42658,150.444263 C222.578714,158.836669 220.670064,168.116602 218.387835,175.465058 C217.684827,169.269368 216.795029,160.832755 206.06991,158.629239 L206.06991,158.629239 Z M379.179712,473.983757 C377.74313,477.873916 376.333717,481.770876 374.856382,485.644033 C367.979128,503.71423 375.814103,518.394139 394.119483,523.807717 C409.84377,528.452785 424.450716,524.470813 438.830119,519.44489 C463.81917,510.705635 486.801082,499.011354 498.806558,473.09623 C503.320074,463.347029 508.309054,453.805258 513.53237,444.416508 C517.509291,437.272082 522.192615,430.518711 526.560095,423.595316 C520.29755,439.268168 512.89389,454.206515 506.736625,469.637933 C500.307667,485.735846 507.755478,494.274473 524.848423,491.54048 C525.683882,491.404461 526.495568,491.11882 527.331027,490.986201 C549.124278,487.459894 567.263245,476.952384 582.148678,461.034696 C592.27607,450.20414 603.894382,442.223193 617.974921,437.751551 C634.935416,432.368577 651.912892,427.036611 668.832633,421.521018 C671.379764,420.687898 675.40423,419.361708 675.77781,417.624058 C679.303039,401.250705 695.265058,386.968653 684.791256,367.840904 C687.878379,371.271997 690.965501,374.70309 694.494127,378.627254 C683.419202,400.10474 681.734699,423.880957 679.163795,447.497351 C677.93438,458.790374 680.267552,468.743604 690.344002,474.918892 C702.332497,482.263947 714.524763,489.442379 727.24004,495.383033 C740.570025,501.609327 754.30755,500.208326 767.243578,493.159113 C775.092137,488.881298 782.743718,484.246432 790.480203,479.77479 C781.232421,488.340621 770.975974,495.471445 760.604057,502.435646 C753.560392,507.162325 746.560876,512.5555 747.861611,521.849036 C749.298193,532.10831 756.640722,537.919745 766.744341,540.03825 C791.274908,545.183189 816.066981,546.604593 840.84547,543.074886 C863.212674,539.888628 877.347552,525.766399 884.330087,504.928204 C891.139416,484.603483 887.104761,465.676364 873.211012,449.340416 C864.914158,439.587814 856.423722,440.594359 850.2291,451.727559 C843.317885,464.139343 840.719811,477.649484 841.256407,491.81592 C841.399046,495.553057 841.28018,499.303796 841.28018,503.044334 C838.35947,501.034645 836.892323,498.729113 835.696869,496.290963 C830.150917,484.933331 835.241782,474.888287 839.470019,464.618812 C842.462049,457.345166 845.766526,449.983108 847.216693,442.335409 C849.441187,430.58332 842.750724,422.871012 830.938829,422.860811 C823.939314,422.85741 816.94659,424.788888 809.940283,424.846696 C798.220085,424.948711 786.489699,424.329822 774.769501,423.846952 C768.693745,423.595316 762.631573,422.990029 755.360364,422.456152 C758.732765,416.977965 762.845532,410.296005 766.9583,403.614045 C767.865078,403.824875 768.765064,404.032305 769.671843,404.243135 C769.254114,413.931127 776.593246,415.379736 782.849,417.437031 C797.180856,422.153509 811.811575,422.071897 826.411729,418.691812 C833.83237,416.974565 842.370352,416.994968 845.827658,423.302874 C851.984922,434.54489 861.762508,438.261624 872.562342,441.662112 C875.194377,442.491832 877.602265,444.215879 879.935437,445.793706 C888.038709,451.282095 889.763966,451.061063 895.072186,442.658456 C896.86197,439.822448 898.373268,436.663394 899.293631,433.446532 C902.346792,422.768997 894.871812,409.639711 884.985548,405.691743 C880.893158,404.062909 877.035104,400.305369 874.5525,396.537628 C871.173307,391.40289 869.196733,385.339819 866.646207,379.661003 C863.33154,372.295544 860.013478,364.967491 851.383799,368.282967 C849.373264,352.147649 847.406879,336.399986 845.569548,321.665668 C848.238941,327.823953 851.271725,335.502257 854.844501,342.918722 C862.808529,359.448498 870.378602,376.219708 879.429407,392.144196 C884.228201,400.580809 890.453389,399.560662 892.980143,390.685387 C899.405705,368.095941 906.082584,345.356873 903.678092,321.482042 C901.820385,303.034391 897.880822,285.096813 884.004054,271.16161 C879.921852,267.060621 875.727577,266.251305 870.178228,268.162379 C863.263617,270.542722 855.900711,271.600274 848.935157,273.858198 C832.619935,279.145958 815.808872,283.484981 800.373259,290.717821 C787.002521,296.97812 780.668656,313.280063 794.059771,327.528111 C798.777057,332.554033 801.673994,339.297202 805.396201,345.254858 C804.62527,345.693521 803.854338,346.135585 803.083407,346.574248 C802.468699,345.390878 801.884557,344.190505 801.24268,343.027538 C794.205807,330.272305 784.451994,324.195632 769.111474,327.337683 C755.309421,330.17029 741.167751,332.169778 727.110986,332.67305 C710.45275,333.264735 693.009998,332.928087 680.440757,319.608373 C669.949974,308.481974 657.48941,303.381241 642.834918,302.939177 C619.880175,302.242077 602.437424,310.862316 603.228732,338.705517 C603.432503,345.778533 603.660046,352.861751 604.16268,359.921166 C604.906442,370.500086 606.376986,380.68795 623.432574,379.735813 C604.064191,387.407316 587.667461,387.471925 576.086507,379.756216 C582.613954,379.756216 587.314259,380.208481 591.85834,379.569189 C594.164343,379.242742 597.411086,377.403078 598.148055,375.457999 C603.218544,362.03967 594.490376,349.522471 580.114369,348.437716 C563.136894,347.162532 549.358614,354.80343 536.293531,364.008553 C519.421337,375.900062 503.140077,388.638293 486.193167,400.420986 C479.309121,405.205473 471.68471,410.574845 463.781812,411.850028 C453.117824,413.570676 449.966174,419.504528 447.660172,428.287991 C444.569653,440.067283 439.13917,450.676808 429.884595,459.32085 C433.664537,450.428572 437.818059,442.124579 440.755749,433.409126 C445.014552,420.762709 441.485927,414.78465 429.405735,409.238453 C414.90407,402.583697 401.387296,407.20156 387.381473,411.016909 C354.173679,420.07241 320.745135,428.328796 287.516965,437.312887 C273.416049,441.128236 257.712138,440.978614 247.411541,454.702987 C243.132362,460.405606 236.713592,464.938457 230.444254,468.587182 C222.731542,473.079227 221.926649,479.189905 223.611151,486.640376 C224.208878,489.279155 225.316031,491.809119 226.188848,494.383289 C222.44966,490.785572 219.987433,486.521359 218.601794,481.930699 C216.69654,475.629594 213.259612,476.075058 209.140052,479.121896 C203.091466,483.596939 197.898715,499.96009 200.585089,507.141922 C205.326148,519.835947 211.564921,531.883878 224.769247,537.528689 C249.136798,547.951187 273.6368,558.118648 298.398307,567.561805 C312.961103,573.118204 328.097853,576.834938 344.036099,572.869968 C355.814032,569.935346 367.670077,567.24896 379.58046,564.912824 C389.436158,562.977946 398.999785,562.845327 408.023421,569.166836 C412.76448,572.492514 418.667031,574.651824 424.362416,575.933808 C427.446142,576.630908 432.598139,575.505347 434.387922,573.261024 C441.125932,564.81081 449.894855,560.308563 460.039228,560.35617 C481.146451,560.447983 502.280845,561.321908 523.343918,562.750114 C536.765599,563.658044 548.879753,555.364252 549.640497,542.347182 C550.32992,530.591692 550.261996,518.774994 550.109169,506.992301 C549.997095,498.477477 547.497511,496.960859 539.058017,497.807581 C529.847592,498.732514 519.159831,502.224816 511.630513,498.899138 C497.495635,492.64904 488.040685,498.317654 477.692542,505.492685 C473.518644,508.389902 469.12739,511.011678 464.675006,513.473632 C457.930203,517.200568 458.7317,522.178883 464.264069,524.967284 C471.596409,528.656814 479.900055,530.418267 486.872401,532.710197 C487.98295,532.0403 487.164472,532.716998 486.227128,533.074049 C473.70883,537.895942 461.890143,535.212956 450.190322,529.935398 C446.688866,528.354171 442.715342,526.633523 439.061058,526.837553 C430.638546,527.310221 422.294145,529.748371 413.888614,529.908194 C394.934565,530.272046 377.434078,527.643469 366.854995,508.134865 C363.710137,502.343833 356.381193,497.831384 349.962423,495.070188 C342.402539,491.812519 333.749087,491.091616 323.040949,488.704473 C329.418964,488.031176 333.490977,487.759137 337.512048,487.15385 C351.942393,484.977537 369.031942,490.945395 379.179712,473.983757 L379.179712,473.983757 Z M584.437699,729.615493 C587.582557,734.719627 589.351964,737.837875 591.359103,740.7963 C593.423977,743.836337 595.86243,746.624738 597.889946,749.688578 C610.014289,767.983207 606.723396,778.171071 585.442967,782.533898 C562.505205,787.240174 539.163299,789.987769 515.97422,793.429064 C512.082204,794.007147 508.061133,793.667098 504.111383,793.898331 C487.212019,794.887873 474.754851,788.709185 466.896104,772.941119 C449.989948,739.031446 432.628704,705.342805 415.067086,671.76638 C413.443715,668.665134 409.361513,665.900537 405.877038,664.921196 C395.899078,662.119194 384.956604,661.864157 375.664671,657.739364 C362.613173,651.941531 349.120172,652.625029 335.779999,651.761305 C308.607208,650.010053 281.824976,646.915609 255.878204,638.01993 C241.688988,633.157232 231.21179,624.543794 224.555288,611.217279 C211.035117,584.149389 197.182122,557.234521 184.351375,529.836784 C180.605395,521.842235 175.575661,517.63583 167.543708,515.065061 C128.694869,502.643076 92.2029755,485.681438 62.0958895,457.287358 C42.6086409,438.914518 30.4299595,416.722929 25.2575859,390.042694 C21.2908542,369.578554 14.3083197,349.716299 9.14613462,329.462989 C3.47791957,307.216992 -0.797863991,284.763565 0.125895443,261.55523 C0.886638507,242.413879 7.48880152,225.877303 19.3788081,210.972961 C23.1213922,206.283687 27.1900092,200.162807 27.3190638,194.609809 C27.6654736,179.691866 34.4442377,168.276425 42.8327884,156.925594 C73.0553443,116.058521 108.572536,81.3973401 155.242765,59.6818194 C177.521669,49.31713 200.76169,42.5365556 225.597913,43.291464 C234.441551,43.5601026 241.875777,41.5538143 249.252268,36.3170618 C277.508439,16.2405767 309.69738,8.77310353 343.82214,9.31718172 C365.533883,9.66403156 387.218456,11.5445018 408.930199,12.1157839 C414.710488,12.2688059 421.1802,11.3880793 426.257481,8.83431233 C454.004226,-5.1178927 481.210979,-1.09171411 507.986418,10.8303992 C521.564323,16.8798685 534.833176,17.0770969 549.243144,14.9211871 C579.968334,10.3271269 608.771289,15.4414618 634.330897,34.7698394 C646.282035,43.8117388 661.398407,41.4654016 675.15631,43.4478865 C702.740038,47.4196573 729.549439,53.3195051 754.018875,67.4689385 C773.974796,79.0101971 790.045493,94.5742337 803.694718,113.028686 C807.800693,118.578283 812.731938,124.036068 818.42053,127.81061 C854.993932,152.052694 877.249063,185.63932 886.46628,228.43107 C887.756827,234.436333 891.210736,240.496004 895.14011,245.324698 C918.59409,274.14724 929.227512,307.108176 926.612458,343.94567 C925.478135,359.921166 921.569139,375.682431 919.398983,391.606919 C918.787672,396.095564 918.743522,401.240504 920.332931,405.351694 C927.821496,424.727679 927.074337,442.743468 914.57302,460.072358 C912.17532,463.391235 911.271938,468.998641 911.964758,473.16424 C918.410697,511.855 895.914437,552.524844 859.952347,564.198722 C848.850253,567.799839 836.742891,568.77578 824.995524,569.758521 C813.20061,570.744663 813.003632,570.952092 810.867438,582.918412 C802.387191,630.491248 784.112376,672.932748 744.839016,703.601755 C718.963563,723.804058 689.444015,734.049731 656.541878,733.097594 C637.384058,732.543314 618.256804,730.771659 599.109173,729.649498 C595.030367,729.411464 590.924392,729.615493 584.437699,729.615493 L584.437699,729.615493 Z" id="brain-fill"></path>
            </g>
        </g>
    </g>
</svg>