<?xml version="1.0" encoding="UTF-8"?>
<svg width="138px" height="253px" viewBox="0 0 138 253" version="1.1" xmlns="http://www.w3.org/2000/svg" xmlns:xlink="http://www.w3.org/1999/xlink">
    <!-- Generator: Sketch 46.2 (44496) - http://www.bohemiancoding.com/sketch -->
    <title>Combined Shape mobile</title>
    <desc>Created with Sketch.</desc>
    <defs></defs>
    <g id="Page-1" stroke="none" stroke-width="1" fill="none" fill-rule="evenodd" opacity="0.359827899">
        <g id="test-desk-2a" transform="translate(-39.000000, -588.000000)" stroke-width="6" stroke="#4349D5">
            <g id="Group-26">
                <g transform="translate(39.000000, -34.000000)" id="Combined-Shape-mobile">
                    <path d="M9,625 C5.6862915,625 3,627.686292 3,631 L3,866 C3,869.313708 5.6862915,872 9,872 L129,872 C132.313708,872 135,869.313708 135,866 L135,631 C135,627.686292 132.313708,625 129,625 L9,625 Z M38.2993619,642.990783 L102.059612,642.990783 C105.326237,642.990783 107.974359,645.638906 107.974359,648.90553 C107.974359,652.172154 105.326237,654.820276 102.059612,654.820276 L38.2993619,654.820276 C35.0327376,654.820276 32.3846154,652.172154 32.3846154,648.90553 C32.3846154,645.638906 35.0327376,642.990783 38.2993619,642.990783 Z M68.1790045,862.457365 C62.2956988,862.457365 57.5123378,857.729112 57.5123378,851.879024 C57.5123378,846.028936 62.2956988,841.300683 68.1790045,841.300683 C74.0623101,841.300683 78.8456712,846.028936 78.8456712,851.879024 C78.8456712,857.729112 74.0623101,862.457365 68.1790045,862.457365 Z" transform="translate(69.000000, 748.500000) rotate(-360.000000) translate(-69.000000, -748.500000) "></path>
                </g>
            </g>
        </g>
    </g>
</svg>