<?xml version="1.0" encoding="UTF-8"?>
<svg width="601px" height="262px" viewBox="0 0 601 262" version="1.1" xmlns="http://www.w3.org/2000/svg" xmlns:xlink="http://www.w3.org/1999/xlink">
    <!-- Generator: Sketch 46.2 (44496) - http://www.bohemiancoding.com/sketch -->
    <title>Combined Shape desktop</title>
    <desc>Created with Sketch.</desc>
    <defs></defs>
    <g id="Page-1" stroke="none" stroke-width="1" fill="none" fill-rule="evenodd" opacity="0.359827899">
        <g id="test-desk-2a" transform="translate(-224.000000, -588.000000)" stroke-width="6" stroke="#4349D5">
            <g id="Group-26">
                <g transform="translate(39.000000, -34.000000)" id="Combined-Shape-desktop">
                    <path d="M194,625 C190.686292,625 188,627.686292 188,631 L188,1013 C188,1016.31371 190.686292,1019 194,1019 L777,1019 C780.313708,1019 783,1016.31371 783,1013 L783,631 C783,627.686292 780.313708,625 777,625 L194,625 Z M236.015116,666.666667 C229.345039,666.666667 223.930233,661.285897 223.930233,654.638889 C223.930233,647.991881 229.345039,642.611111 236.015116,642.611111 C242.685193,642.611111 248.1,647.991881 248.1,654.638889 C248.1,661.285897 242.685193,666.666667 236.015116,666.666667 Z M263.968605,666.666667 C257.298528,666.666667 251.883721,661.285897 251.883721,654.638889 C251.883721,647.991881 257.298528,642.611111 263.968605,642.611111 C270.638682,642.611111 276.053488,647.991881 276.053488,654.638889 C276.053488,661.285897 270.638682,666.666667 263.968605,666.666667 Z M291.922093,666.666667 C285.252016,666.666667 279.837209,661.285897 279.837209,654.638889 C279.837209,647.991881 285.252016,642.611111 291.922093,642.611111 C298.59217,642.611111 304.006977,647.991881 304.006977,654.638889 C304.006977,661.285897 298.59217,666.666667 291.922093,666.666667 Z"></path>
                </g>
            </g>
        </g>
    </g>
</svg>