<?xml version="1.0" encoding="UTF-8"?>
<svg width="1203px" height="850px" viewBox="0 0 1203 850" version="1.1" xmlns="http://www.w3.org/2000/svg" xmlns:xlink="http://www.w3.org/1999/xlink">
    <!-- Generator: Sketch 46.2 (44496) - http://www.bohemiancoding.com/sketch -->
    <title>landing back</title>
    <desc>Created with Sketch.</desc>
    <defs></defs>
    <g id="Page-1" stroke="none" stroke-width="1" fill="none" fill-rule="evenodd" opacity="0.359827899">
        <g id="test-desk-2a" transform="translate(-39.000000, 0.000000)" stroke-width="6" stroke="#4349D5">
            <g id="Group-26">
                <g id="landing-back" transform="translate(39.000000, -34.000000)">
                    <path d="M194,625 C190.686292,625 188,627.686292 188,631 L188,1013 C188,1016.31371 190.686292,1019 194,1019 L777,1019 C780.313708,1019 783,1016.31371 783,1013 L783,631 C783,627.686292 780.313708,625 777,625 L194,625 Z M236.015116,666.666667 C229.345039,666.666667 223.930233,661.285897 223.930233,654.638889 C223.930233,647.991881 229.345039,642.611111 236.015116,642.611111 C242.685193,642.611111 248.1,647.991881 248.1,654.638889 C248.1,661.285897 242.685193,666.666667 236.015116,666.666667 Z M263.968605,666.666667 C257.298528,666.666667 251.883721,661.285897 251.883721,654.638889 C251.883721,647.991881 257.298528,642.611111 263.968605,642.611111 C270.638682,642.611111 276.053488,647.991881 276.053488,654.638889 C276.053488,661.285897 270.638682,666.666667 263.968605,666.666667 Z M291.922093,666.666667 C285.252016,666.666667 279.837209,661.285897 279.837209,654.638889 C279.837209,647.991881 285.252016,642.611111 291.922093,642.611111 C298.59217,642.611111 304.006977,647.991881 304.006977,654.638889 C304.006977,661.285897 298.59217,666.666667 291.922093,666.666667 Z" id="Combined-Shape-desktop"></path>
                    <path d="M610,177 C606.686292,177 604,179.686292 604,183 L604,565 C604,568.313708 606.686292,571 610,571 L1193,571 C1196.31371,571 1199,568.313708 1199,565 L1199,183 C1199,179.686292 1196.31371,177 1193,177 L610,177 Z M652.015116,218.666667 C645.345039,218.666667 639.930233,213.285897 639.930233,206.638889 C639.930233,199.991881 645.345039,194.611111 652.015116,194.611111 C658.685193,194.611111 664.1,199.991881 664.1,206.638889 C664.1,213.285897 658.685193,218.666667 652.015116,218.666667 Z M679.968605,218.666667 C673.298528,218.666667 667.883721,213.285897 667.883721,206.638889 C667.883721,199.991881 673.298528,194.611111 679.968605,194.611111 C686.638682,194.611111 692.053488,199.991881 692.053488,206.638889 C692.053488,213.285897 686.638682,218.666667 679.968605,218.666667 Z M707.922093,218.666667 C701.252016,218.666667 695.837209,213.285897 695.837209,206.638889 C695.837209,199.991881 701.252016,194.611111 707.922093,194.611111 C714.59217,194.611111 720.006977,199.991881 720.006977,206.638889 C720.006977,213.285897 714.59217,218.666667 707.922093,218.666667 Z" id="Combined-Shape"></path>
                    <path d="M59,256 C55.6862915,256 53,258.686292 53,262 L53,614 C53,617.313708 55.6862915,620 59,620 L313,620 C316.313708,620 319,617.313708 319,614 L319,262 C319,258.686292 316.313708,256 313,256 L59,256 Z M186.701031,603.744361 C180.016291,603.744361 174.587629,598.358617 174.587629,591.703008 C174.587629,585.047398 180.016291,579.661654 186.701031,579.661654 C193.385771,579.661654 198.814433,585.047398 198.814433,591.703008 C198.814433,598.358617 193.385771,603.744361 186.701031,603.744361 Z" id="Combined-Shape" transform="translate(186.000000, 438.000000) rotate(-90.000000) translate(-186.000000, -438.000000) "></path>
                    <path d="M244,-46 C240.686292,-46 238,-43.3137085 238,-40 L238,312 C238,315.313708 240.686292,318 244,318 L498,318 C501.313708,318 504,315.313708 504,312 L504,-40 C504,-43.3137085 501.313708,-46 498,-46 L244,-46 Z M371.701031,301.744361 C365.016291,301.744361 359.587629,296.358617 359.587629,289.703008 C359.587629,283.047398 365.016291,277.661654 371.701031,277.661654 C378.385771,277.661654 383.814433,283.047398 383.814433,289.703008 C383.814433,296.358617 378.385771,301.744361 371.701031,301.744361 Z" id="Combined-Shape" transform="translate(371.000000, 136.000000) rotate(-90.000000) translate(-371.000000, -136.000000) "></path>
                    <path d="M891,576 C887.686292,576 885,578.686292 885,582 L885,934 C885,937.313708 887.686292,940 891,940 L1145,940 C1148.31371,940 1151,937.313708 1151,934 L1151,582 C1151,578.686292 1148.31371,576 1145,576 L891,576 Z M1018.70103,923.744361 C1012.01629,923.744361 1006.58763,918.358617 1006.58763,911.703008 C1006.58763,905.047398 1012.01629,899.661654 1018.70103,899.661654 C1025.38577,899.661654 1030.81443,905.047398 1030.81443,911.703008 C1030.81443,918.358617 1025.38577,923.744361 1018.70103,923.744361 Z" id="Combined-Shape-tablet" transform="translate(1018.000000, 758.000000) rotate(-90.000000) translate(-1018.000000, -758.000000) "></path>
                    <path d="M9,625 C5.6862915,625 3,627.686292 3,631 L3,866 C3,869.313708 5.6862915,872 9,872 L129,872 C132.313708,872 135,869.313708 135,866 L135,631 C135,627.686292 132.313708,625 129,625 L9,625 Z M38.2993619,642.990783 L102.059612,642.990783 C105.326237,642.990783 107.974359,645.638906 107.974359,648.90553 C107.974359,652.172154 105.326237,654.820276 102.059612,654.820276 L38.2993619,654.820276 C35.0327376,654.820276 32.3846154,652.172154 32.3846154,648.90553 C32.3846154,645.638906 35.0327376,642.990783 38.2993619,642.990783 Z M68.1790045,862.457365 C62.2956988,862.457365 57.5123378,857.729112 57.5123378,851.879024 C57.5123378,846.028936 62.2956988,841.300683 68.1790045,841.300683 C74.0623101,841.300683 78.8456712,846.028936 78.8456712,851.879024 C78.8456712,857.729112 74.0623101,862.457365 68.1790045,862.457365 Z" id="Combined-Shape-mobile" transform="translate(69.000000, 748.500000) rotate(-360.000000) translate(-69.000000, -748.500000) "></path>
                    <path d="M425,323 C421.686292,323 419,325.686292 419,329 L419,564 C419,567.313708 421.686292,570 425,570 L545,570 C548.313708,570 551,567.313708 551,564 L551,329 C551,325.686292 548.313708,323 545,323 L425,323 Z M454.299362,340.990783 L518.059612,340.990783 C521.326237,340.990783 523.974359,343.638906 523.974359,346.90553 C523.974359,350.172154 521.326237,352.820276 518.059612,352.820276 L454.299362,352.820276 C451.032738,352.820276 448.384615,350.172154 448.384615,346.90553 C448.384615,343.638906 451.032738,340.990783 454.299362,340.990783 Z M484.179004,560.457365 C478.295699,560.457365 473.512338,555.729112 473.512338,549.879024 C473.512338,544.028936 478.295699,539.300683 484.179004,539.300683 C490.06231,539.300683 494.845671,544.028936 494.845671,549.879024 C494.845671,555.729112 490.06231,560.457365 484.179004,560.457365 Z" id="Combined-Shape" transform="translate(485.000000, 446.500000) rotate(-360.000000) translate(-485.000000, -446.500000) "></path>
                    <path d="M9,4 C5.6862915,4 3,6.6862915 3,10 L3,245 C3,248.313708 5.6862915,251 9,251 L129,251 C132.313708,251 135,248.313708 135,245 L135,10 C135,6.6862915 132.313708,4 129,4 L9,4 Z M38.2993619,21.9907834 L102.059612,21.9907834 C105.326237,21.9907834 107.974359,24.6389056 107.974359,27.90553 C107.974359,31.1721543 105.326237,33.8202765 102.059612,33.8202765 L38.2993619,33.8202765 C35.0327376,33.8202765 32.3846154,31.1721543 32.3846154,27.90553 C32.3846154,24.6389056 35.0327376,21.9907834 38.2993619,21.9907834 Z M68.1790045,241.457365 C62.2956988,241.457365 57.5123378,236.729112 57.5123378,230.879024 C57.5123378,225.028936 62.2956988,220.300683 68.1790045,220.300683 C74.0623101,220.300683 78.8456712,225.028936 78.8456712,230.879024 C78.8456712,236.729112 74.0623101,241.457365 68.1790045,241.457365 Z" id="Combined-Shape" transform="translate(69.000000, 127.500000) rotate(-360.000000) translate(-69.000000, -127.500000) "></path>
                </g>
            </g>
        </g>
    </g>
</svg>