<?xml version="1.0" encoding="UTF-8"?>
<svg width="324px" height="458px" viewBox="0 0 324 458" version="1.1" xmlns="http://www.w3.org/2000/svg" xmlns:xlink="http://www.w3.org/1999/xlink">
    <!-- Generator: Sketch 46.2 (44496) - http://www.bohemiancoding.com/sketch -->
    <title>ic_brush</title>
    <desc>Created with Sketch.</desc>
    <defs></defs>
    <g id="Page-1" stroke="none" stroke-width="1" fill="none" fill-rule="evenodd" opacity="0.84986413">
        <g id="test-desk-2a" transform="translate(-17.000000, -1221.000000)">
            <g id="ic_brush" transform="translate(166.000000, 1444.000000) rotate(-105.000000) translate(-166.000000, -1444.000000) translate(-47.000000, 1241.000000)">
                <polygon id="Bounds" points="267.775355 201.819663 425.663619 201.819663 425.663619 363.537146 267.775355 363.537146"></polygon>
                <path d="M138.75148,232.56273 L124.765463,218.141657 L114.690544,225.939999 L114.201039,224.863997 L123.95949,217.310613 L53.3252724,144.479206 L43.2258098,152.178955 L42.9952093,150.274425 L52.1653391,143.283191 L42.6824452,133.505316 L39.2310134,143.962811 L22.7585801,112.961688 L0.781766252,90.3012507 L15.1267983,36.7648621 L24.942056,0.133821651 L57.3897713,8.82816075 L57.8460796,7.45837726 L77.5552402,27.8442204 L131.125906,83.0842839 L131.367192,82.9003295 L131.427061,83.3947941 L250.858195,206.535712 L182.192078,277.354617 L143.82121,237.790162 L143.758868,237.844154 L142.835223,236.773505 L141.718981,235.62254 L137.78714,238.244675 L140.907377,241.560745 L138.992923,243.218766 L135.828601,239.550819 L130.507858,243.099208 L134.829936,247.692549 L132.915483,249.350571 L128.612763,244.363041 L120.899289,249.507136 L119.781766,247.992196 L126.811146,242.274684 L116.198968,229.9735 L117.579219,229.359141 L128.465717,240.928899 L133.491149,236.841345 L122.276408,223.841695 L123.65666,223.227336 L135.176681,235.470378 L138.75148,232.56273 Z M167.852434,208.89278 L154.605264,195.044601 L153.287444,196.06464 L166.029005,210.375909 L167.852434,208.89278 Z M160.965588,214.494359 L162.83997,212.969786 L149.484422,199.008313 L148.119038,200.065168 L160.965588,214.494359 Z M155.345477,219.065609 L157.266435,217.503153 L143.917987,203.316929 L142.623537,204.318879 L155.345477,219.065609 Z M150.287369,223.179741 L152.140171,221.672721 L138.681935,207.369818 L137.462502,208.313702 L150.287369,223.179741 Z M145.597282,226.994535 L132.911397,213.512457 L131.531145,214.126816 L143.854776,228.411843 L145.597282,226.994535 Z M149.090211,230.706687 L147.023543,232.084942 L148.24766,233.503887 L150.162114,231.845865 L149.090211,230.706687 Z M141.797257,235.570338 L142.835223,236.773505 L143.82121,237.790162 L145.673321,236.186133 L143.822823,234.219494 L141.797257,235.570338 Z M139.016584,232.347101 L140.741138,230.944395 L128.422605,217.852724 L127.042353,218.467083 L139.016584,232.347101 Z M173.587641,204.227913 L160.588743,190.413177 L159.340815,191.379117 L171.729361,205.73939 L173.587641,204.227913 Z M178.713905,200.058345 L165.824796,186.360288 L164.501851,187.384294 L176.787469,201.625258 L178.713905,200.058345 Z M184.008243,195.75207 L171.232522,182.174518 L169.915332,183.194069 L182.092987,197.309888 L184.008243,195.75207 Z M190.010893,190.869672 L177.36373,177.428747 L176.030039,178.46107 L188.085749,192.435534 L190.010893,190.869672 Z M176.030039,178.46107 L175.277452,177.588703 L170.440439,181.332722 L171.232522,182.174518 L176.030039,178.46107 Z M177.36373,177.428747 L202.803622,157.737375 L202.314117,156.661373 L176.571647,176.586951 L177.36373,177.428747 Z M169.915332,183.194069 L169.162745,182.321703 L165.032713,185.518493 L165.824796,186.360288 L169.915332,183.194069 Z M164.501851,187.384294 L163.749264,186.511927 L159.796661,189.571381 L160.588743,190.413177 L164.501851,187.384294 Z M159.340815,191.379117 L158.588228,190.50675 L153.805609,194.208666 L154.605264,195.044601 L159.340815,191.379117 Z M138.681935,207.369818 L142.623537,204.318879 L141.87095,203.446512 L137.889852,206.528022 L138.681935,207.369818 Z M137.462502,208.313702 L136.709915,207.441335 L123.95949,217.310613 L124.765463,218.141657 L137.462502,208.313702 Z M143.917987,203.316929 L148.119038,200.065168 L147.352186,199.203843 L143.125905,202.475133 L143.917987,203.316929 Z M149.484422,199.008313 L153.287444,196.06464 L152.520592,195.203315 L148.684767,198.172378 L149.484422,199.008313 Z M284.385866,237.025446 C323.75743,237.025446 355.447606,269.780989 355.447606,310.215322 C355.447606,331.338417 372.812815,346.617784 390.413736,346.617784 L405.049005,346.617784 L396.431166,358.429977 C375.576849,387.014314 340.085442,405.323667 305.59144,405.323667 C254.556811,405.323667 213.324127,362.704813 213.324127,310.215322 C213.324127,269.780989 245.014303,237.025446 284.385866,237.025446 Z M77.5539155,27.8482338 L59.7097586,9.44979948 L57.3897713,8.82816075 L22.7227899,112.894331 L22.7585801,112.961688 L42.6824452,133.505316 L77.5539155,27.8482338 Z M131.427061,83.3947941 L131.125906,83.0842839 L52.1653391,143.283191 L53.3252724,144.479206 L131.597792,84.8048603 L131.427061,83.3947941 Z M153.805609,194.208666 L150.465259,190.716768 L149.000228,191.249257 L152.520592,195.203315 L153.805609,194.208666 Z M147.352186,199.203843 L148.684767,198.172378 L144.184929,193.468387 L142.719898,194.000877 L147.352186,199.203843 Z M141.87095,203.446512 L143.125905,202.475133 L140.9289,200.14024 L139.548648,200.754599 L141.87095,203.446512 Z M136.709915,207.441335 L137.889852,206.528022 L137.197301,205.792004 L135.817049,206.406363 L136.709915,207.441335 Z M159.796661,189.571381 L158.532656,188.228045 L157.152404,188.842404 L158.588228,190.50675 L159.796661,189.571381 Z M165.032713,185.518493 L162.264256,182.576282 L160.884004,183.190641 L163.749264,186.511927 L165.032713,185.518493 Z M170.440439,181.332722 L167.787393,178.513166 L166.407141,179.127525 L169.162745,182.321703 L170.440439,181.332722 Z M176.571647,176.586951 L173.587682,173.415706 L172.20743,174.030065 L175.277452,177.588703 L176.571647,176.586951 Z M138.75148,232.56273 L141.718981,235.62254 L141.797257,235.570338 L139.016584,232.347101 L138.75148,232.56273 Z M167.852434,208.89278 L171.481613,212.68661 L169.533406,214.312036 L166.029005,210.375909 L162.83997,212.969786 L165.201283,215.43823 L163.253076,217.063656 L160.965588,214.494359 L157.266435,217.503153 L158.179617,218.473649 L156.265163,220.13167 L155.345477,219.065609 L152.140171,221.672721 L154.448017,224.125412 L152.533564,225.783434 L150.287369,223.179741 L145.597282,226.994535 L149.090211,230.706687 L223.300801,181.215847 L214.77122,170.730274 L190.010893,190.869672 L190.838399,191.749114 L188.923945,193.407135 L188.085749,192.435534 L184.008243,195.75207 L185.03811,196.846574 L183.123656,198.504596 L182.092987,197.309888 L178.713905,200.058345 L179.514973,200.90969 L177.600519,202.567711 L176.787469,201.625258 L173.587641,204.227913 L175.783373,206.561454 L173.868919,208.219475 L171.729361,205.73939 L167.852434,208.89278 Z M147.023543,232.084942 L143.854776,228.411843 L140.741138,230.944395 L143.822823,234.219494 L147.023543,232.084942 Z M135.176681,235.470378 L133.491149,236.841345 L135.828601,239.550819 L137.78714,238.244675 L135.176681,235.470378 Z M128.465717,240.928899 L126.811146,242.274684 L128.612763,244.363041 L130.507858,243.099208 L128.465717,240.928899 Z" id="Combined-Shape" fill="#656BFD" fill-rule="nonzero" opacity="0.86548913"></path>
            </g>
        </g>
    </g>
</svg>