<?xml version="1.0" encoding="UTF-8"?>
<svg width="262px" height="504px" viewBox="0 0 262 504" version="1.1" xmlns="http://www.w3.org/2000/svg" xmlns:xlink="http://www.w3.org/1999/xlink">
    <!-- Generator: Sketch 46.2 (44496) - http://www.bohemiancoding.com/sketch -->
    <title>ic_phone_iphone</title>
    <desc>Created with Sketch.</desc>
    <defs></defs>
    <g id="Page-1" stroke="none" stroke-width="1" fill="none" fill-rule="evenodd" opacity="0.85">
        <g id="test-desk-2a" transform="translate(-12.000000, -2899.000000)">
            <g id="ic_phone_iphone" transform="translate(157.500000, 3151.000000) rotate(-360.000000) translate(-157.500000, -3151.000000) translate(-83.000000, 2878.000000)">
                <polygon id="Bounds" points="0 0 481 0 481 546 0 546"></polygon>
                <path d="M244.738727,434.965663 C249.695569,440.275166 252.728609,447.400462 252.728609,455.233443 C252.728609,471.649045 239.407581,484.95652 222.975261,484.95652 C206.54294,484.95652 193.221912,471.649045 193.221912,455.233443 C193.221912,438.817841 206.54294,425.510366 222.975261,425.510366 C223.413684,425.510366 223.849893,425.519839 224.283693,425.538591 L313.335401,316.579186 L314.431555,318.009675 L226.411774,425.706483 C231.821007,426.32795 236.78885,428.398603 240.916401,431.519946 L339.593843,304.653598 L312.940536,309.47678 L312.410229,305.65229 L351.065616,300.368021 L350.705072,302.64291 L342.035905,304.211682 L356.994861,315.845624 L244.738727,434.965663 Z M292.064795,278.436752 L298.824768,277.51265 L298.464223,279.787539 L260.699688,286.621409 L260.396832,284.437259 L252.641631,285.906729 L252.181026,282.066147 L298.717978,274.962276 L298.182361,277.277583 L292.064795,278.436752 Z M224.283708,425.538592 L205.836293,448.109969 L206.932447,449.540459 L226.411774,425.706483 C225.709561,425.625806 224.99991,425.569551 224.283693,425.538591 Z M291.652255,269.114951 L246.111525,277.744097 L245.65092,273.903515 L292.187872,266.799644 L291.652255,269.114951 Z M292.064795,278.436752 L260.169381,282.796919 L260.396832,284.437259 L292.064795,278.436752 Z M308.259382,283.052592 L270.494847,289.886462 L269.96454,286.061972 L308.619927,280.777703 L308.259382,283.052592 Z M321.319595,286.317645 L283.555059,293.151515 L283.024752,289.327025 L321.680139,284.042756 L321.319595,286.317645 Z M329.482227,291.215224 L291.717691,298.049094 L291.187384,294.224604 L329.842772,288.940335 L329.482227,291.215224 Z M339.277386,296.112804 L301.512851,302.946674 L300.982543,299.122184 L339.637931,293.837915 L339.277386,296.112804 Z M273.976326,258.564694 L236.21179,265.398564 L235.681483,261.574074 L274.336871,256.289805 L273.976326,258.564694 Z M264.181167,255.299641 L226.416631,262.133511 L225.886324,258.309021 L264.541711,253.024752 L264.181167,255.299641 Z M256.018534,248.769535 L218.253999,255.603405 L217.723691,251.778915 L256.379079,246.494646 L256.018534,248.769535 Z M246.223375,242.239429 L208.45884,249.073299 L207.928532,245.248809 L246.58392,239.96454 L246.223375,242.239429 Z M244.738727,434.965663 C243.567199,433.710786 242.288209,432.557337 240.916401,431.519946 L226.121591,450.541148 L228.301177,452.408288 L244.738727,434.965663 Z M342.035905,304.211682 L340.728463,303.194853 L339.593843,304.653598 L342.035905,304.211682 Z M305,21 L145,21 C117.4,21 95,46.6581818 95,78.2727273 L95,467.727273 C95,499.341818 117.4,525 145,525 L305,525 C332.6,525 355,499.341818 355,467.727273 L355,78.2727273 C355,46.6581818 332.6,21 305,21 L305,21 Z M315,410.454545 L135,410.454545 L135,89.7272727 L315,89.7272727 L315,410.454545 L315,410.454545 Z" id="Icon" fill="#656BFD"></path>
            </g>
        </g>
    </g>
</svg>