<?xml version="1.0" encoding="UTF-8"?>
<svg width="497px" height="298px" viewBox="0 0 497 298" version="1.1" xmlns="http://www.w3.org/2000/svg" xmlns:xlink="http://www.w3.org/1999/xlink">
    <!-- Generator: Sketch 46.2 (44496) - http://www.bohemiancoding.com/sketch -->
    <title>Icon_code</title>
    <desc>Created with Sketch.</desc>
    <defs>
        <rect id="path-1" x="0" y="0" width="515" height="319"></rect>
    </defs>
    <g id="Page-1" stroke="none" stroke-width="1" fill="none" fill-rule="evenodd">
        <g id="test-desk-2a" transform="translate(-722.000000, -2233.000000)">
            <g id="Icon_code" transform="translate(706.000000, 2212.000000)">
                <mask id="mask-2" fill="white">
                    <use xlink:href="#path-1"></use>
                </mask>
                <g id="Mask"></g>
                <path d="M90.5163939,109.974707 L116.270227,82.335 L116.448765,44.6983779 L120.308552,44.9789874 L118.908064,79.5040029 L122.872687,75.2490622 L122.978871,52.8650022 L126.838658,53.1456118 L126.08175,71.80501 L127.045309,70.7708917 L127.203692,58.5760503 L131.060982,58.7851677 L130.601643,66.9541388 L169.790676,24.8954135 L214.665631,73.0564221 L181.801905,108.326657 L181.111483,120.605242 L178.946142,119.817288 L179.05712,111.272434 L133.943296,159.689805 L201.684419,237.239812 L186.154491,250.793742 L126.445335,167.736817 L112.681379,182.508665 L164.589952,244.911545 L162.975787,245.714637 L111.475615,183.802724 L105.749908,189.947707 L214.665631,306.838991 L169.790676,355 L16,189.947707 L69.1436342,132.912528 L54.3225741,115.095108 L55.9367394,114.292016 L70.3493988,131.618469 L87.3576027,113.364807 L76.6058967,98.4089158 L78.8557459,96.6256025 L90.5163939,109.974707 Z M69.1436342,132.912528 L111.475615,183.802724 L112.681379,182.508665 L70.3493988,131.618469 L69.1436342,132.912528 Z M118.908064,79.5040029 L116.270227,82.335 L116.228891,91.0489467 L118.400503,92.0164675 L118.908064,79.5040029 Z M122.872687,75.2490622 L122.758997,99.215571 L124.930609,100.183092 L126.08175,71.80501 L122.872687,75.2490622 Z M130.601643,66.9541388 L127.045309,70.7708917 L126.705294,96.9507401 L128.870635,97.7386934 L130.601643,66.9541388 Z M136.500453,100.21739 L138.665794,101.005343 L140.856141,62.0518174 L136.998851,61.8427 L136.500453,100.21739 Z M149.560665,103.48404 L151.726006,104.271993 L153.916353,65.3184672 L150.059063,65.1093497 L149.560665,103.48404 Z M157.723298,108.384014 L159.888639,109.171967 L162.078986,70.2184418 L158.221696,70.0093243 L157.723298,108.384014 Z M167.518457,113.283989 L169.683798,114.071942 L171.874145,75.1184163 L168.016855,74.9092989 L167.518457,113.283989 Z M181.801905,108.326657 L183.301831,81.6517158 L179.44454,81.4425983 L179.05712,111.272434 L181.801905,108.326657 Z M102.217396,75.7175169 L102.715795,37.342827 L106.573085,37.5519445 L104.382738,76.5054702 L102.217396,75.7175169 Z M92.4222373,72.4508672 L92.9206355,34.0761773 L96.7779257,34.2852948 L94.5875785,73.2388205 L92.4222373,72.4508672 Z M84.2596047,65.9175677 L84.758003,27.5428779 L88.6152931,27.7519953 L86.4249459,66.705521 L84.2596047,65.9175677 Z M74.4644457,59.3842683 L74.9628439,21.0095784 L78.8201341,21.2186959 L76.6297869,60.1722216 L74.4644457,59.3842683 Z M90.5163939,109.974707 L87.3576027,113.364807 L126.445335,167.736817 L133.943296,159.689805 L90.5163939,109.974707 Z M314.334369,73.0564221 L359.209324,24.8954135 L513,189.947707 L359.209324,355 L314.334369,306.838991 L423.250092,189.947707 L314.334369,73.0564221 Z" id="Icon" fill="#656BFD" fill-rule="nonzero" opacity="0.845052083" mask="url(#mask-2)"></path>
            </g>
        </g>
    </g>
</svg>